<mxfile host="Electron" agent="Mozilla/5.0 (X11; Linux x86_64) AppleWebKit/537.36 (KHTML, like Gecko) draw.io/24.7.8 Chrome/128.0.6613.36 Electron/32.0.1 Safari/537.36" version="24.7.8">
  <diagram name="Page-1" id="WevClHWmhzPAQ7FDN5po">
    <mxGraphModel dx="3157" dy="473" grid="1" gridSize="10" guides="1" tooltips="1" connect="1" arrows="1" fold="1" page="1" pageScale="1" pageWidth="1169" pageHeight="827" math="0" shadow="0">
      <root>
        <mxCell id="0" />
        <mxCell id="1" parent="0" />
        <mxCell id="-XxvrMC6G6SQ8Xm1xsTM-4" value="&lt;blockquote style=&quot;margin: 0px 0px 0px 8px; border: none; padding: 0px;&quot;&gt;&lt;u&gt;id:&amp;nbsp;&lt;/u&gt;&lt;u style=&quot;background-color: initial;&quot;&gt;Number&lt;/u&gt;&lt;/blockquote&gt;" style="rounded=0;whiteSpace=wrap;html=1;align=left;" parent="1" vertex="1">
          <mxGeometry x="-169" y="917" width="160" height="30" as="geometry" />
        </mxCell>
        <mxCell id="-XxvrMC6G6SQ8Xm1xsTM-5" value="&lt;blockquote style=&quot;margin: 0px; border: none; padding: 0px;&quot;&gt;&lt;b&gt;&lt;u&gt;Products&lt;/u&gt;&lt;/b&gt;&lt;/blockquote&gt;" style="rounded=0;whiteSpace=wrap;html=1;align=center;fillColor=#008a00;strokeColor=default;fontColor=#ffffff;" parent="1" vertex="1">
          <mxGeometry x="-169" y="887" width="160" height="30" as="geometry" />
        </mxCell>
        <mxCell id="-XxvrMC6G6SQ8Xm1xsTM-21" value="&lt;blockquote style=&quot;margin: 0px 0px 0px 8px; border: none; padding: 0px;&quot;&gt;name: String&lt;/blockquote&gt;" style="rounded=0;whiteSpace=wrap;html=1;align=left;" parent="1" vertex="1">
          <mxGeometry x="-169" y="1006" width="160" height="30" as="geometry" />
        </mxCell>
        <mxCell id="-XxvrMC6G6SQ8Xm1xsTM-22" value="&lt;blockquote style=&quot;margin: 0px 0px 0px 8px; border: none; padding: 0px;&quot;&gt;price: Number&lt;/blockquote&gt;" style="rounded=0;whiteSpace=wrap;html=1;align=left;" parent="1" vertex="1">
          <mxGeometry x="-169" y="1067" width="160" height="30" as="geometry" />
        </mxCell>
        <mxCell id="-XxvrMC6G6SQ8Xm1xsTM-23" value="&lt;blockquote style=&quot;margin: 0px 0px 0px 8px; border: none; padding: 0px;&quot;&gt;&lt;i&gt;categoryId: Number&lt;/i&gt;&lt;/blockquote&gt;" style="rounded=0;whiteSpace=wrap;html=1;align=left;" parent="1" vertex="1">
          <mxGeometry x="-169" y="947" width="160" height="30" as="geometry" />
        </mxCell>
        <mxCell id="-XxvrMC6G6SQ8Xm1xsTM-24" value="&lt;blockquote style=&quot;margin: 0px 0px 0px 8px; border: none; padding: 0px;&quot;&gt;discount: Number&lt;/blockquote&gt;" style="rounded=0;whiteSpace=wrap;html=1;align=left;" parent="1" vertex="1">
          <mxGeometry x="-169" y="1097" width="160" height="30" as="geometry" />
        </mxCell>
        <mxCell id="xvubMpEdOjOFzFZ-NZdf-2" value="&lt;blockquote style=&quot;margin: 0px; border: none; padding: 0px;&quot;&gt;&lt;b&gt;&lt;u&gt;Accounts&lt;/u&gt;&lt;/b&gt;&lt;/blockquote&gt;" style="rounded=0;whiteSpace=wrap;html=1;align=center;fillColor=#1ba1e2;strokeColor=default;fontColor=#ffffff;" parent="1" vertex="1">
          <mxGeometry x="-1129.15" y="887" width="160" height="30" as="geometry" />
        </mxCell>
        <mxCell id="xvubMpEdOjOFzFZ-NZdf-3" value="&lt;blockquote style=&quot;margin: 0px 0px 0px 8px; border: none; padding: 0px;&quot;&gt;&lt;u&gt;id:&amp;nbsp;&lt;/u&gt;&lt;u style=&quot;background-color: initial;&quot;&gt;Number&lt;/u&gt;&lt;/blockquote&gt;" style="rounded=0;whiteSpace=wrap;html=1;align=left;" parent="1" vertex="1">
          <mxGeometry x="-1129.15" y="917" width="160" height="30" as="geometry" />
        </mxCell>
        <mxCell id="xvubMpEdOjOFzFZ-NZdf-4" value="&lt;blockquote style=&quot;margin: 0px 0px 0px 8px; border: none; padding: 0px;&quot;&gt;username: String&lt;/blockquote&gt;" style="rounded=0;whiteSpace=wrap;html=1;align=left;" parent="1" vertex="1">
          <mxGeometry x="-1129.15" y="947" width="160" height="30" as="geometry" />
        </mxCell>
        <mxCell id="xvubMpEdOjOFzFZ-NZdf-5" value="&lt;blockquote style=&quot;margin: 0px 0px 0px 8px; border: none; padding: 0px;&quot;&gt;password: String&lt;/blockquote&gt;" style="rounded=0;whiteSpace=wrap;html=1;align=left;" parent="1" vertex="1">
          <mxGeometry x="-1129.15" y="977" width="160" height="30" as="geometry" />
        </mxCell>
        <mxCell id="xvubMpEdOjOFzFZ-NZdf-6" value="&lt;blockquote style=&quot;margin: 0px; border: none; padding: 0px;&quot;&gt;&lt;b&gt;&lt;u&gt;OrderItems&lt;/u&gt;&lt;/b&gt;&lt;/blockquote&gt;" style="rounded=0;whiteSpace=wrap;html=1;align=center;fillColor=#a20025;strokeColor=default;fontColor=#ffffff;" parent="1" vertex="1">
          <mxGeometry x="-408.99999999999994" y="827" width="160" height="30" as="geometry" />
        </mxCell>
        <mxCell id="xvubMpEdOjOFzFZ-NZdf-7" value="&lt;blockquote style=&quot;margin: 0px 0px 0px 8px; border: none; padding: 0px;&quot;&gt;&lt;u&gt;id:&amp;nbsp;&lt;/u&gt;&lt;u style=&quot;background-color: initial;&quot;&gt;Number&lt;/u&gt;&lt;/blockquote&gt;" style="rounded=0;whiteSpace=wrap;html=1;align=left;" parent="1" vertex="1">
          <mxGeometry x="-408.99999999999994" y="857" width="160" height="30" as="geometry" />
        </mxCell>
        <mxCell id="xvubMpEdOjOFzFZ-NZdf-8" value="&lt;blockquote style=&quot;margin: 0px 0px 0px 8px; border: none; padding: 0px;&quot;&gt;&lt;i&gt;accountId: Number&lt;/i&gt;&lt;/blockquote&gt;" style="rounded=0;whiteSpace=wrap;html=1;align=left;" parent="1" vertex="1">
          <mxGeometry x="-649" y="917" width="160" height="30" as="geometry" />
        </mxCell>
        <mxCell id="xvubMpEdOjOFzFZ-NZdf-17" value="&lt;blockquote style=&quot;margin: 0px; border: none; padding: 0px;&quot;&gt;&lt;b&gt;&lt;u&gt;Categories&lt;/u&gt;&lt;/b&gt;&lt;/blockquote&gt;" style="rounded=0;whiteSpace=wrap;html=1;align=center;fillColor=#008a00;strokeColor=default;fontColor=#ffffff;" parent="1" vertex="1">
          <mxGeometry x="70.96000000000004" y="917" width="160" height="30" as="geometry" />
        </mxCell>
        <mxCell id="xvubMpEdOjOFzFZ-NZdf-18" value="&lt;blockquote style=&quot;margin: 0px 0px 0px 8px; border: none; padding: 0px;&quot;&gt;&lt;u&gt;id:&amp;nbsp;&lt;/u&gt;&lt;u style=&quot;background-color: initial;&quot;&gt;Number&lt;/u&gt;&lt;/blockquote&gt;" style="rounded=0;whiteSpace=wrap;html=1;align=left;" parent="1" vertex="1">
          <mxGeometry x="70.96000000000004" y="947" width="160" height="30" as="geometry" />
        </mxCell>
        <mxCell id="xvubMpEdOjOFzFZ-NZdf-19" value="&lt;blockquote style=&quot;margin: 0px 0px 0px 8px; border: none; padding: 0px;&quot;&gt;name: String&lt;/blockquote&gt;" style="rounded=0;whiteSpace=wrap;html=1;align=left;" parent="1" vertex="1">
          <mxGeometry x="70.96000000000004" y="977" width="160" height="30" as="geometry" />
        </mxCell>
        <mxCell id="xvubMpEdOjOFzFZ-NZdf-20" value="" style="endArrow=open;endSize=12;startArrow=diamondThin;startSize=14;startFill=0;edgeStyle=orthogonalEdgeStyle;entryX=-0.019;entryY=0.493;entryDx=0;entryDy=0;exitX=1;exitY=0.5;exitDx=0;exitDy=0;entryPerimeter=0;" parent="1" source="-XxvrMC6G6SQ8Xm1xsTM-23" target="xvubMpEdOjOFzFZ-NZdf-18" edge="1">
          <mxGeometry x="389.35999999999996" y="350" as="geometry">
            <mxPoint x="151" y="1076.9999999999998" as="sourcePoint" />
            <mxPoint x="31" y="1196.9999999999998" as="targetPoint" />
            <Array as="points" />
          </mxGeometry>
        </mxCell>
        <mxCell id="xvubMpEdOjOFzFZ-NZdf-21" value="0..n" style="resizable=0;align=left;verticalAlign=top;labelBackgroundColor=#ffffff;fontSize=10;strokeColor=#003366;shadow=1;fillColor=#D4E1F5;fontColor=#003366" parent="xvubMpEdOjOFzFZ-NZdf-20" connectable="0" vertex="1">
          <mxGeometry x="-1" relative="1" as="geometry">
            <mxPoint x="4" y="-29" as="offset" />
          </mxGeometry>
        </mxCell>
        <mxCell id="xvubMpEdOjOFzFZ-NZdf-22" value="1" style="resizable=0;align=right;verticalAlign=top;labelBackgroundColor=#ffffff;fontSize=10;strokeColor=#003366;shadow=1;fillColor=#D4E1F5;fontColor=#003366" parent="xvubMpEdOjOFzFZ-NZdf-20" connectable="0" vertex="1">
          <mxGeometry x="1" relative="1" as="geometry">
            <mxPoint x="-7" y="-31" as="offset" />
          </mxGeometry>
        </mxCell>
        <mxCell id="xvubMpEdOjOFzFZ-NZdf-23" value="&lt;blockquote style=&quot;margin: 0px 0px 0px 8px; border: none; padding: 0px;&quot;&gt;&lt;i&gt;productId:&amp;nbsp;&lt;/i&gt;&lt;i style=&quot;background-color: initial;&quot;&gt;Number&lt;/i&gt;&lt;/blockquote&gt;" style="rounded=0;whiteSpace=wrap;html=1;align=left;" parent="1" vertex="1">
          <mxGeometry x="-408.99999999999994" y="917" width="160" height="30" as="geometry" />
        </mxCell>
        <mxCell id="xvubMpEdOjOFzFZ-NZdf-24" value="" style="endArrow=open;endSize=12;startArrow=diamondThin;startSize=14;startFill=0;edgeStyle=orthogonalEdgeStyle;entryX=0;entryY=0.5;entryDx=0;entryDy=0;exitX=1;exitY=0.5;exitDx=0;exitDy=0;" parent="1" source="xvubMpEdOjOFzFZ-NZdf-23" target="-XxvrMC6G6SQ8Xm1xsTM-4" edge="1">
          <mxGeometry x="389.35999999999996" y="350" as="geometry">
            <mxPoint x="-209" y="787" as="sourcePoint" />
            <mxPoint x="-249.0000000000001" y="1102" as="targetPoint" />
          </mxGeometry>
        </mxCell>
        <mxCell id="xvubMpEdOjOFzFZ-NZdf-25" value="0..n" style="resizable=0;align=left;verticalAlign=top;labelBackgroundColor=#ffffff;fontSize=10;strokeColor=#003366;shadow=1;fillColor=#D4E1F5;fontColor=#003366" parent="xvubMpEdOjOFzFZ-NZdf-24" connectable="0" vertex="1">
          <mxGeometry x="-1" relative="1" as="geometry">
            <mxPoint x="10" y="-25" as="offset" />
          </mxGeometry>
        </mxCell>
        <mxCell id="xvubMpEdOjOFzFZ-NZdf-26" value="1" style="resizable=0;align=right;verticalAlign=top;labelBackgroundColor=#ffffff;fontSize=10;strokeColor=#003366;shadow=1;fillColor=#D4E1F5;fontColor=#003366" parent="xvubMpEdOjOFzFZ-NZdf-24" connectable="0" vertex="1">
          <mxGeometry x="1" relative="1" as="geometry">
            <mxPoint x="-9" y="-25" as="offset" />
          </mxGeometry>
        </mxCell>
        <mxCell id="xvubMpEdOjOFzFZ-NZdf-37" value="&lt;blockquote style=&quot;margin: 0px 0px 0px 8px; border: none; padding: 0px;&quot;&gt;firstName: String&lt;/blockquote&gt;" style="rounded=0;whiteSpace=wrap;html=1;align=left;" parent="1" vertex="1">
          <mxGeometry x="-1129.15" y="1037" width="160" height="30" as="geometry" />
        </mxCell>
        <mxCell id="xvubMpEdOjOFzFZ-NZdf-38" value="&lt;blockquote style=&quot;margin: 0px 0px 0px 8px; border: none; padding: 0px;&quot;&gt;lastName: String&lt;/blockquote&gt;" style="rounded=0;whiteSpace=wrap;html=1;align=left;" parent="1" vertex="1">
          <mxGeometry x="-1129.15" y="1067" width="160" height="30" as="geometry" />
        </mxCell>
        <mxCell id="xvubMpEdOjOFzFZ-NZdf-40" value="&lt;blockquote style=&quot;margin: 0px; border: none; padding: 0px;&quot;&gt;&lt;b&gt;&lt;u&gt;Orders&lt;/u&gt;&lt;/b&gt;&lt;/blockquote&gt;" style="rounded=0;whiteSpace=wrap;html=1;align=center;fillColor=#a20025;strokeColor=default;fontColor=#ffffff;" parent="1" vertex="1">
          <mxGeometry x="-649" y="857" width="160" height="30" as="geometry" />
        </mxCell>
        <mxCell id="xvubMpEdOjOFzFZ-NZdf-41" value="&lt;blockquote style=&quot;margin: 0px 0px 0px 8px; border: none; padding: 0px;&quot;&gt;&lt;u&gt;id: Number&lt;/u&gt;&lt;/blockquote&gt;" style="rounded=0;whiteSpace=wrap;html=1;align=left;" parent="1" vertex="1">
          <mxGeometry x="-649" y="887" width="160" height="30" as="geometry" />
        </mxCell>
        <mxCell id="xvubMpEdOjOFzFZ-NZdf-42" value="&lt;blockquote style=&quot;margin: 0px 0px 0px 8px; border: none; padding: 0px;&quot;&gt;&lt;i&gt;orderId:&amp;nbsp;&lt;/i&gt;&lt;i style=&quot;background-color: initial;&quot;&gt;Number&lt;/i&gt;&lt;/blockquote&gt;" style="rounded=0;whiteSpace=wrap;html=1;align=left;" parent="1" vertex="1">
          <mxGeometry x="-408.99999999999994" y="887" width="160" height="30" as="geometry" />
        </mxCell>
        <mxCell id="xvubMpEdOjOFzFZ-NZdf-47" value="&lt;blockquote style=&quot;margin: 0px 0px 0px 8px; border: none; padding: 0px;&quot;&gt;quantity: Number&lt;/blockquote&gt;" style="rounded=0;whiteSpace=wrap;html=1;align=left;" parent="1" vertex="1">
          <mxGeometry x="-408.99999999999994" y="947" width="160" height="30" as="geometry" />
        </mxCell>
        <mxCell id="Mm1_BtgNgvV1z5cDQ8i7-1" value="&lt;blockquote style=&quot;margin: 0px 0px 0px 8px; border: none; padding: 0px;&quot;&gt;icon: String&lt;/blockquote&gt;" style="rounded=0;whiteSpace=wrap;html=1;align=left;" parent="1" vertex="1">
          <mxGeometry x="70.96000000000004" y="1007" width="160" height="30" as="geometry" />
        </mxCell>
        <mxCell id="Mm1_BtgNgvV1z5cDQ8i7-2" value="&lt;blockquote style=&quot;margin: 0px 0px 0px 8px; border: none; padding: 0px;&quot;&gt;&lt;i&gt;brandId: Number&lt;/i&gt;&lt;/blockquote&gt;" style="rounded=0;whiteSpace=wrap;html=1;align=left;" parent="1" vertex="1">
          <mxGeometry x="-169" y="977" width="160" height="30" as="geometry" />
        </mxCell>
        <mxCell id="Mm1_BtgNgvV1z5cDQ8i7-4" value="&lt;blockquote style=&quot;margin: 0px 0px 0px 8px; border: none; padding: 0px;&quot;&gt;rating: Number&lt;/blockquote&gt;" style="rounded=0;whiteSpace=wrap;html=1;align=left;" parent="1" vertex="1">
          <mxGeometry x="-169" y="1127" width="160" height="30" as="geometry" />
        </mxCell>
        <mxCell id="Mm1_BtgNgvV1z5cDQ8i7-6" value="&lt;blockquote style=&quot;margin: 0px 0px 0px 8px; border: none; padding: 0px;&quot;&gt;description: String&lt;/blockquote&gt;" style="rounded=0;whiteSpace=wrap;html=1;align=left;" parent="1" vertex="1">
          <mxGeometry x="-169.00000000000003" y="1037" width="160" height="30" as="geometry" />
        </mxCell>
        <mxCell id="Mm1_BtgNgvV1z5cDQ8i7-7" value="&lt;blockquote style=&quot;margin: 0px 0px 0px 8px; border: none; padding: 0px;&quot;&gt;shippingProgress: Number&lt;/blockquote&gt;" style="rounded=0;whiteSpace=wrap;html=1;align=left;" parent="1" vertex="1">
          <mxGeometry x="-649" y="977" width="160" height="30" as="geometry" />
        </mxCell>
        <mxCell id="Mm1_BtgNgvV1z5cDQ8i7-11" value="" style="sketch=0;pointerEvents=1;shadow=0;dashed=0;html=1;strokeColor=none;labelPosition=center;verticalLabelPosition=bottom;verticalAlign=top;outlineConnect=0;align=center;shape=mxgraph.office.security.key_permissions;fillColor=#2072B8;" parent="1" vertex="1">
          <mxGeometry x="-989.0600000000001" y="922" width="9.43" height="20" as="geometry" />
        </mxCell>
        <mxCell id="Mm1_BtgNgvV1z5cDQ8i7-12" value="" style="sketch=0;pointerEvents=1;shadow=0;dashed=0;html=1;strokeColor=none;labelPosition=center;verticalLabelPosition=bottom;verticalAlign=top;outlineConnect=0;align=center;shape=mxgraph.office.security.key_permissions;fillColor=#2072B8;" parent="1" vertex="1">
          <mxGeometry x="-508.9100000000001" y="892" width="9.43" height="20" as="geometry" />
        </mxCell>
        <mxCell id="Mm1_BtgNgvV1z5cDQ8i7-13" value="" style="sketch=0;pointerEvents=1;shadow=0;dashed=0;html=1;strokeColor=none;labelPosition=center;verticalLabelPosition=bottom;verticalAlign=top;outlineConnect=0;align=center;shape=mxgraph.office.security.key_permissions;fillColor=#2072B8;" parent="1" vertex="1">
          <mxGeometry x="-268.90999999999997" y="862" width="9.43" height="20" as="geometry" />
        </mxCell>
        <mxCell id="Mm1_BtgNgvV1z5cDQ8i7-14" value="" style="sketch=0;pointerEvents=1;shadow=0;dashed=0;html=1;strokeColor=none;labelPosition=center;verticalLabelPosition=bottom;verticalAlign=top;outlineConnect=0;align=center;shape=mxgraph.office.security.key_permissions;fillColor=#2072B8;" parent="1" vertex="1">
          <mxGeometry x="-29.04000000000002" y="922" width="9.43" height="20" as="geometry" />
        </mxCell>
        <mxCell id="Mm1_BtgNgvV1z5cDQ8i7-15" value="" style="sketch=0;pointerEvents=1;shadow=0;dashed=0;html=1;strokeColor=none;labelPosition=center;verticalLabelPosition=bottom;verticalAlign=top;outlineConnect=0;align=center;shape=mxgraph.office.security.key_permissions;fillColor=#2072B8;" parent="1" vertex="1">
          <mxGeometry x="210.92000000000002" y="952" width="9.43" height="20" as="geometry" />
        </mxCell>
        <mxCell id="Mm1_BtgNgvV1z5cDQ8i7-16" value="1" style="ellipse;whiteSpace=wrap;html=1;aspect=fixed;rotation=0;gradientColor=#223548;strokeColor=none;gradientDirection=east;fillColor=#5b738b;rounded=0;pointerEvents=0;fontFamily=Helvetica;fontSize=16;fontColor=#FFFFFF;spacingTop=4;spacingBottom=4;spacingLeft=4;spacingRight=4;points=[];fontStyle=1" parent="1" vertex="1">
          <mxGeometry x="-994.3500000000001" y="952" width="20" height="20" as="geometry" />
        </mxCell>
        <mxCell id="Mm1_BtgNgvV1z5cDQ8i7-17" value="1" style="ellipse;whiteSpace=wrap;html=1;aspect=fixed;rotation=0;gradientColor=#223548;strokeColor=none;gradientDirection=east;fillColor=#5b738b;rounded=0;pointerEvents=0;fontFamily=Helvetica;fontSize=16;fontColor=#FFFFFF;spacingTop=4;spacingBottom=4;spacingLeft=4;spacingRight=4;points=[];fontStyle=1" parent="1" vertex="1">
          <mxGeometry x="205.63000000000005" y="982" width="20" height="20" as="geometry" />
        </mxCell>
        <mxCell id="Mm1_BtgNgvV1z5cDQ8i7-18" value="" style="sketch=0;pointerEvents=1;shadow=0;dashed=0;html=1;strokeColor=none;labelPosition=center;verticalLabelPosition=bottom;verticalAlign=top;outlineConnect=0;align=center;shape=mxgraph.office.security.key_permissions;fillColor=#2072B8;" parent="1" vertex="1">
          <mxGeometry x="-391.31000000000006" y="1107" width="9.43" height="20" as="geometry" />
        </mxCell>
        <mxCell id="Mm1_BtgNgvV1z5cDQ8i7-19" value="Primary Key" style="text;strokeColor=none;align=left;fillColor=none;html=1;verticalAlign=middle;whiteSpace=wrap;rounded=0;" parent="1" vertex="1">
          <mxGeometry x="-371.4" y="1102" width="110" height="30" as="geometry" />
        </mxCell>
        <mxCell id="Mm1_BtgNgvV1z5cDQ8i7-20" value="1" style="ellipse;whiteSpace=wrap;html=1;aspect=fixed;rotation=0;gradientColor=#223548;strokeColor=none;gradientDirection=east;fillColor=#5b738b;rounded=0;pointerEvents=0;fontFamily=Helvetica;fontSize=16;fontColor=#FFFFFF;spacingTop=4;spacingBottom=4;spacingLeft=4;spacingRight=4;points=[];fontStyle=1" parent="1" vertex="1">
          <mxGeometry x="-396.6" y="1177" width="20" height="20" as="geometry" />
        </mxCell>
        <mxCell id="Mm1_BtgNgvV1z5cDQ8i7-21" value="Unique" style="text;strokeColor=none;align=left;fillColor=none;html=1;verticalAlign=middle;whiteSpace=wrap;rounded=0;" parent="1" vertex="1">
          <mxGeometry x="-371.4000000000001" y="1172" width="110" height="30" as="geometry" />
        </mxCell>
        <mxCell id="Mm1_BtgNgvV1z5cDQ8i7-24" value="" style="sketch=0;pointerEvents=1;shadow=0;dashed=0;html=1;strokeColor=none;labelPosition=center;verticalLabelPosition=bottom;verticalAlign=top;outlineConnect=0;align=center;shape=mxgraph.office.security.key_permissions;fillColor=#CCCCCC;" parent="1" vertex="1">
          <mxGeometry x="-268.90999999999997" y="892" width="9.43" height="20" as="geometry" />
        </mxCell>
        <mxCell id="Mm1_BtgNgvV1z5cDQ8i7-25" value="" style="sketch=0;pointerEvents=1;shadow=0;dashed=0;html=1;strokeColor=none;labelPosition=center;verticalLabelPosition=bottom;verticalAlign=top;outlineConnect=0;align=center;shape=mxgraph.office.security.key_permissions;fillColor=#CCCCCC;" parent="1" vertex="1">
          <mxGeometry x="-268.90999999999997" y="922" width="9.43" height="20" as="geometry" />
        </mxCell>
        <mxCell id="Mm1_BtgNgvV1z5cDQ8i7-26" value="" style="sketch=0;pointerEvents=1;shadow=0;dashed=0;html=1;strokeColor=none;labelPosition=center;verticalLabelPosition=bottom;verticalAlign=top;outlineConnect=0;align=center;shape=mxgraph.office.security.key_permissions;fillColor=#CCCCCC;" parent="1" vertex="1">
          <mxGeometry x="-508.9100000000001" y="922" width="9.43" height="20" as="geometry" />
        </mxCell>
        <mxCell id="Mm1_BtgNgvV1z5cDQ8i7-27" value="" style="sketch=0;pointerEvents=1;shadow=0;dashed=0;html=1;strokeColor=none;labelPosition=center;verticalLabelPosition=bottom;verticalAlign=top;outlineConnect=0;align=center;shape=mxgraph.office.security.key_permissions;fillColor=#CCCCCC;" parent="1" vertex="1">
          <mxGeometry x="-29.04000000000002" y="982" width="9.43" height="20" as="geometry" />
        </mxCell>
        <mxCell id="Mm1_BtgNgvV1z5cDQ8i7-28" value="" style="sketch=0;pointerEvents=1;shadow=0;dashed=0;html=1;strokeColor=none;labelPosition=center;verticalLabelPosition=bottom;verticalAlign=top;outlineConnect=0;align=center;shape=mxgraph.office.security.key_permissions;fillColor=#CCCCCC;" parent="1" vertex="1">
          <mxGeometry x="-391.31000000000006" y="1142" width="9.43" height="20" as="geometry" />
        </mxCell>
        <mxCell id="Mm1_BtgNgvV1z5cDQ8i7-29" value="Foreign Key" style="text;strokeColor=none;align=left;fillColor=none;html=1;verticalAlign=middle;whiteSpace=wrap;rounded=0;" parent="1" vertex="1">
          <mxGeometry x="-371.4" y="1137" width="110" height="30" as="geometry" />
        </mxCell>
        <mxCell id="_UF3kFiP3G3Olu9frHUj-1" value="&lt;blockquote style=&quot;margin: 0px 0px 0px 8px; border: none; padding: 0px;&quot;&gt;bankName: String&lt;/blockquote&gt;" style="rounded=0;whiteSpace=wrap;html=1;align=left;" parent="1" vertex="1">
          <mxGeometry x="-888.32" y="1067" width="160" height="30" as="geometry" />
        </mxCell>
        <mxCell id="_UF3kFiP3G3Olu9frHUj-2" value="&lt;blockquote style=&quot;margin: 0px 0px 0px 8px; border: none; padding: 0px;&quot;&gt;iban: String&lt;/blockquote&gt;" style="rounded=0;whiteSpace=wrap;html=1;align=left;" parent="1" vertex="1">
          <mxGeometry x="-888.32" y="1097" width="160" height="30" as="geometry" />
        </mxCell>
        <mxCell id="_UF3kFiP3G3Olu9frHUj-3" value="&lt;blockquote style=&quot;margin: 0px 0px 0px 8px; border: none; padding: 0px;&quot;&gt;orderedAt: String&lt;/blockquote&gt;" style="rounded=0;whiteSpace=wrap;html=1;align=left;" parent="1" vertex="1">
          <mxGeometry x="-649" y="947" width="160" height="30" as="geometry" />
        </mxCell>
        <mxCell id="_UF3kFiP3G3Olu9frHUj-4" value="&lt;blockquote style=&quot;margin: 0px; border: none; padding: 0px;&quot;&gt;&lt;b&gt;&lt;u&gt;Brands&lt;/u&gt;&lt;/b&gt;&lt;/blockquote&gt;" style="rounded=0;whiteSpace=wrap;html=1;align=center;fillColor=#008a00;strokeColor=default;fontColor=#ffffff;" parent="1" vertex="1">
          <mxGeometry x="70.96000000000004" y="1077" width="160" height="30" as="geometry" />
        </mxCell>
        <mxCell id="_UF3kFiP3G3Olu9frHUj-5" value="&lt;blockquote style=&quot;margin: 0px 0px 0px 8px; border: none; padding: 0px;&quot;&gt;&lt;u&gt;id:&amp;nbsp;&lt;/u&gt;&lt;u style=&quot;background-color: initial;&quot;&gt;Number&lt;/u&gt;&lt;/blockquote&gt;" style="rounded=0;whiteSpace=wrap;html=1;align=left;" parent="1" vertex="1">
          <mxGeometry x="70.96000000000004" y="1107" width="160" height="30" as="geometry" />
        </mxCell>
        <mxCell id="_UF3kFiP3G3Olu9frHUj-6" value="&lt;blockquote style=&quot;margin: 0px 0px 0px 8px; border: none; padding: 0px;&quot;&gt;name: String&lt;/blockquote&gt;" style="rounded=0;whiteSpace=wrap;html=1;align=left;" parent="1" vertex="1">
          <mxGeometry x="70.96000000000004" y="1137" width="160" height="30" as="geometry" />
        </mxCell>
        <mxCell id="_UF3kFiP3G3Olu9frHUj-7" value="" style="sketch=0;pointerEvents=1;shadow=0;dashed=0;html=1;strokeColor=none;labelPosition=center;verticalLabelPosition=bottom;verticalAlign=top;outlineConnect=0;align=center;shape=mxgraph.office.security.key_permissions;fillColor=#2072B8;" parent="1" vertex="1">
          <mxGeometry x="211.24999999999994" y="1112" width="9.43" height="20" as="geometry" />
        </mxCell>
        <mxCell id="_UF3kFiP3G3Olu9frHUj-8" value="1" style="ellipse;whiteSpace=wrap;html=1;aspect=fixed;rotation=0;gradientColor=#223548;strokeColor=none;gradientDirection=east;fillColor=#5b738b;rounded=0;pointerEvents=0;fontFamily=Helvetica;fontSize=16;fontColor=#FFFFFF;spacingTop=4;spacingBottom=4;spacingLeft=4;spacingRight=4;points=[];fontStyle=1" parent="1" vertex="1">
          <mxGeometry x="205.95999999999998" y="1142" width="20" height="20" as="geometry" />
        </mxCell>
        <mxCell id="_UF3kFiP3G3Olu9frHUj-9" value="" style="endArrow=open;endSize=12;startArrow=diamondThin;startSize=14;startFill=0;edgeStyle=orthogonalEdgeStyle;entryX=0;entryY=0.5;entryDx=0;entryDy=0;exitX=1;exitY=0.5;exitDx=0;exitDy=0;" parent="1" source="Mm1_BtgNgvV1z5cDQ8i7-2" target="_UF3kFiP3G3Olu9frHUj-5" edge="1">
          <mxGeometry x="389.35999999999996" y="350" as="geometry">
            <mxPoint x="-414.04" y="1117" as="sourcePoint" />
            <mxPoint x="-284.04" y="1117" as="targetPoint" />
            <Array as="points" />
          </mxGeometry>
        </mxCell>
        <mxCell id="_UF3kFiP3G3Olu9frHUj-10" value="0..n" style="resizable=0;align=left;verticalAlign=top;labelBackgroundColor=#ffffff;fontSize=10;strokeColor=#003366;shadow=1;fillColor=#D4E1F5;fontColor=#003366" parent="_UF3kFiP3G3Olu9frHUj-9" connectable="0" vertex="1">
          <mxGeometry x="-1" relative="1" as="geometry">
            <mxPoint x="3" y="-28" as="offset" />
          </mxGeometry>
        </mxCell>
        <mxCell id="_UF3kFiP3G3Olu9frHUj-11" value="1" style="resizable=0;align=right;verticalAlign=top;labelBackgroundColor=#ffffff;fontSize=10;strokeColor=#003366;shadow=1;fillColor=#D4E1F5;fontColor=#003366" parent="_UF3kFiP3G3Olu9frHUj-9" connectable="0" vertex="1">
          <mxGeometry x="1" relative="1" as="geometry">
            <mxPoint x="-4" y="-30" as="offset" />
          </mxGeometry>
        </mxCell>
        <mxCell id="_UF3kFiP3G3Olu9frHUj-12" value="&lt;blockquote style=&quot;margin: 0px 0px 0px 8px; border: none; padding: 0px;&quot;&gt;images: Array&amp;lt;String&amp;gt;&lt;/blockquote&gt;" style="rounded=0;whiteSpace=wrap;html=1;align=left;" parent="1" vertex="1">
          <mxGeometry x="-169" y="1247" width="160" height="30" as="geometry" />
        </mxCell>
        <mxCell id="_UF3kFiP3G3Olu9frHUj-13" value="&lt;blockquote style=&quot;margin: 0px 0px 0px 8px; border: none; padding: 0px;&quot;&gt;specs: Array&amp;lt;String&amp;gt;&lt;/blockquote&gt;" style="rounded=0;whiteSpace=wrap;html=1;align=left;" parent="1" vertex="1">
          <mxGeometry x="-169" y="1217" width="160" height="30" as="geometry" />
        </mxCell>
        <mxCell id="_UF3kFiP3G3Olu9frHUj-14" value="&lt;blockquote style=&quot;margin: 0px 0px 0px 8px; border: none; padding: 0px;&quot;&gt;inStock: Number&lt;/blockquote&gt;" style="rounded=0;whiteSpace=wrap;html=1;align=left;" parent="1" vertex="1">
          <mxGeometry x="-169" y="1157" width="160" height="30" as="geometry" />
        </mxCell>
        <mxCell id="_UF3kFiP3G3Olu9frHUj-16" value="&lt;blockquote style=&quot;margin: 0px; border: none; padding: 0px;&quot;&gt;&lt;b&gt;&lt;u&gt;Addresses&lt;/u&gt;&lt;/b&gt;&lt;/blockquote&gt;" style="rounded=0;whiteSpace=wrap;html=1;align=center;fillColor=#1ba1e2;strokeColor=default;fontColor=#ffffff;" parent="1" vertex="1">
          <mxGeometry x="-888.3199999999999" y="1167" width="160" height="30" as="geometry" />
        </mxCell>
        <mxCell id="_UF3kFiP3G3Olu9frHUj-17" value="&lt;blockquote style=&quot;margin: 0px 0px 0px 8px; border: none; padding: 0px;&quot;&gt;street: String&lt;/blockquote&gt;" style="rounded=0;whiteSpace=wrap;html=1;align=left;" parent="1" vertex="1">
          <mxGeometry x="-888.3199999999999" y="1257" width="160" height="30" as="geometry" />
        </mxCell>
        <mxCell id="_UF3kFiP3G3Olu9frHUj-18" value="&lt;blockquote style=&quot;margin: 0px 0px 0px 8px; border: none; padding: 0px;&quot;&gt;houseNumber: Number&lt;/blockquote&gt;" style="rounded=0;whiteSpace=wrap;html=1;align=left;" parent="1" vertex="1">
          <mxGeometry x="-888.3199999999999" y="1287" width="160" height="30" as="geometry" />
        </mxCell>
        <mxCell id="_UF3kFiP3G3Olu9frHUj-19" value="&lt;blockquote style=&quot;margin: 0px 0px 0px 8px; border: none; padding: 0px;&quot;&gt;postalCode: Number&lt;/blockquote&gt;" style="rounded=0;whiteSpace=wrap;html=1;align=left;" parent="1" vertex="1">
          <mxGeometry x="-888.3199999999999" y="1317" width="160" height="30" as="geometry" />
        </mxCell>
        <mxCell id="_UF3kFiP3G3Olu9frHUj-20" value="&lt;blockquote style=&quot;margin: 0px 0px 0px 8px; border: none; padding: 0px;&quot;&gt;city: String&lt;/blockquote&gt;" style="rounded=0;whiteSpace=wrap;html=1;align=left;" parent="1" vertex="1">
          <mxGeometry x="-888.3199999999999" y="1347" width="160" height="30" as="geometry" />
        </mxCell>
        <mxCell id="_UF3kFiP3G3Olu9frHUj-21" value="&lt;blockquote style=&quot;margin: 0px 0px 0px 8px; border: none; padding: 0px;&quot;&gt;&lt;u&gt;id:&amp;nbsp;&lt;/u&gt;&lt;u style=&quot;background-color: initial;&quot;&gt;Number&lt;/u&gt;&lt;/blockquote&gt;" style="rounded=0;whiteSpace=wrap;html=1;align=left;" parent="1" vertex="1">
          <mxGeometry x="-888.3199999999999" y="1197" width="160" height="30" as="geometry" />
        </mxCell>
        <mxCell id="_UF3kFiP3G3Olu9frHUj-25" value="&lt;blockquote style=&quot;margin: 0px 0px 0px 8px; border: none; padding: 0px;&quot;&gt;&lt;i&gt;accountId: Number&lt;/i&gt;&lt;/blockquote&gt;" style="rounded=0;whiteSpace=wrap;html=1;align=left;" parent="1" vertex="1">
          <mxGeometry x="-888.3199999999999" y="1227" width="160" height="30" as="geometry" />
        </mxCell>
        <mxCell id="_UF3kFiP3G3Olu9frHUj-26" value="" style="sketch=0;pointerEvents=1;shadow=0;dashed=0;html=1;strokeColor=none;labelPosition=center;verticalLabelPosition=bottom;verticalAlign=top;outlineConnect=0;align=center;shape=mxgraph.office.security.key_permissions;fillColor=#2072B8;" parent="1" vertex="1">
          <mxGeometry x="-745.3199999999999" y="1201" width="9.43" height="20" as="geometry" />
        </mxCell>
        <mxCell id="_UF3kFiP3G3Olu9frHUj-27" value="&lt;blockquote style=&quot;margin: 0px; border: none; padding: 0px;&quot;&gt;&lt;b&gt;&lt;u&gt;Payments&lt;/u&gt;&lt;/b&gt;&lt;/blockquote&gt;" style="rounded=0;whiteSpace=wrap;html=1;align=center;fillColor=#1ba1e2;strokeColor=default;fontColor=#ffffff;" parent="1" vertex="1">
          <mxGeometry x="-888.32" y="977" width="160" height="30" as="geometry" />
        </mxCell>
        <mxCell id="_UF3kFiP3G3Olu9frHUj-28" value="&lt;blockquote style=&quot;margin: 0px 0px 0px 8px; border: none; padding: 0px;&quot;&gt;&lt;u&gt;id:&amp;nbsp;&lt;/u&gt;&lt;u style=&quot;background-color: initial;&quot;&gt;Number&lt;/u&gt;&lt;/blockquote&gt;" style="rounded=0;whiteSpace=wrap;html=1;align=left;" parent="1" vertex="1">
          <mxGeometry x="-888.32" y="1007" width="160" height="30" as="geometry" />
        </mxCell>
        <mxCell id="_UF3kFiP3G3Olu9frHUj-29" value="&lt;blockquote style=&quot;margin: 0px 0px 0px 8px; border: none; padding: 0px;&quot;&gt;&lt;i&gt;accountId: Number&lt;/i&gt;&lt;/blockquote&gt;" style="rounded=0;whiteSpace=wrap;html=1;align=left;" parent="1" vertex="1">
          <mxGeometry x="-888.32" y="1037" width="160" height="30" as="geometry" />
        </mxCell>
        <mxCell id="_UF3kFiP3G3Olu9frHUj-33" value="" style="sketch=0;pointerEvents=1;shadow=0;dashed=0;html=1;strokeColor=none;labelPosition=center;verticalLabelPosition=bottom;verticalAlign=top;outlineConnect=0;align=center;shape=mxgraph.office.security.key_permissions;fillColor=#2072B8;" parent="1" vertex="1">
          <mxGeometry x="-745.32" y="1012" width="9.43" height="20" as="geometry" />
        </mxCell>
        <mxCell id="_UF3kFiP3G3Olu9frHUj-36" value="" style="sketch=0;pointerEvents=1;shadow=0;dashed=0;html=1;strokeColor=none;labelPosition=center;verticalLabelPosition=bottom;verticalAlign=top;outlineConnect=0;align=center;shape=mxgraph.office.security.key_permissions;fillColor=#CCCCCC;" parent="1" vertex="1">
          <mxGeometry x="-745.3199999999999" y="1232" width="9.43" height="20" as="geometry" />
        </mxCell>
        <mxCell id="_UF3kFiP3G3Olu9frHUj-37" value="" style="sketch=0;pointerEvents=1;shadow=0;dashed=0;html=1;strokeColor=none;labelPosition=center;verticalLabelPosition=bottom;verticalAlign=top;outlineConnect=0;align=center;shape=mxgraph.office.security.key_permissions;fillColor=#CCCCCC;" parent="1" vertex="1">
          <mxGeometry x="-745.32" y="1042" width="9.43" height="20" as="geometry" />
        </mxCell>
        <mxCell id="_UF3kFiP3G3Olu9frHUj-38" value="&lt;blockquote style=&quot;margin: 0px 0px 0px 8px; border: none; padding: 0px;&quot;&gt;accountRoleId: Number&lt;/blockquote&gt;" style="rounded=0;whiteSpace=wrap;html=1;align=left;" parent="1" vertex="1">
          <mxGeometry x="-1129.15" y="1097" width="160" height="30" as="geometry" />
        </mxCell>
        <mxCell id="_UF3kFiP3G3Olu9frHUj-39" value="&lt;blockquote style=&quot;margin: 0px; border: none; padding: 0px;&quot;&gt;&lt;b&gt;&lt;u&gt;AccountRoles&lt;/u&gt;&lt;/b&gt;&lt;/blockquote&gt;" style="rounded=0;whiteSpace=wrap;html=1;align=center;fillColor=#1ba1e2;strokeColor=default;fontColor=#ffffff;" parent="1" vertex="1">
          <mxGeometry x="-1128.47" y="1167" width="160" height="30" as="geometry" />
        </mxCell>
        <mxCell id="_UF3kFiP3G3Olu9frHUj-40" value="&lt;blockquote style=&quot;margin: 0px 0px 0px 8px; border: none; padding: 0px;&quot;&gt;name: String&lt;/blockquote&gt;" style="rounded=0;whiteSpace=wrap;html=1;align=left;" parent="1" vertex="1">
          <mxGeometry x="-1128.47" y="1227" width="160" height="30" as="geometry" />
        </mxCell>
        <mxCell id="_UF3kFiP3G3Olu9frHUj-41" value="&lt;blockquote style=&quot;margin: 0px 0px 0px 8px; border: none; padding: 0px;&quot;&gt;&lt;u&gt;id:&amp;nbsp;&lt;/u&gt;&lt;u style=&quot;background-color: initial;&quot;&gt;Number&lt;/u&gt;&lt;/blockquote&gt;" style="rounded=0;whiteSpace=wrap;html=1;align=left;" parent="1" vertex="1">
          <mxGeometry x="-1128.47" y="1197" width="160" height="30" as="geometry" />
        </mxCell>
        <mxCell id="_UF3kFiP3G3Olu9frHUj-44" value="" style="sketch=0;pointerEvents=1;shadow=0;dashed=0;html=1;strokeColor=none;labelPosition=center;verticalLabelPosition=bottom;verticalAlign=top;outlineConnect=0;align=center;shape=mxgraph.office.security.key_permissions;fillColor=#CCCCCC;" parent="1" vertex="1">
          <mxGeometry x="-985.47" y="1102" width="9.43" height="20" as="geometry" />
        </mxCell>
        <mxCell id="_UF3kFiP3G3Olu9frHUj-49" value="&lt;blockquote style=&quot;margin: 0px 0px 0px 8px; border: none; padding: 0px;&quot;&gt;orderPrice: Number&lt;/blockquote&gt;" style="rounded=0;whiteSpace=wrap;html=1;align=left;" parent="1" vertex="1">
          <mxGeometry x="-408.99999999999994" y="977" width="160" height="30" as="geometry" />
        </mxCell>
        <mxCell id="_UF3kFiP3G3Olu9frHUj-52" value="" style="endArrow=open;endSize=12;startArrow=diamondThin;startSize=14;startFill=0;edgeStyle=orthogonalEdgeStyle;entryX=1;entryY=0.5;entryDx=0;entryDy=0;exitX=0;exitY=0.5;exitDx=0;exitDy=0;" parent="1" source="_UF3kFiP3G3Olu9frHUj-25" target="xvubMpEdOjOFzFZ-NZdf-3" edge="1">
          <mxGeometry x="389.35999999999996" y="350" as="geometry">
            <mxPoint x="-859.0000000000001" y="677" as="sourcePoint" />
            <mxPoint x="-759.0000000000001" y="677" as="targetPoint" />
            <Array as="points">
              <mxPoint x="-929" y="1242" />
              <mxPoint x="-929" y="932" />
            </Array>
          </mxGeometry>
        </mxCell>
        <mxCell id="_UF3kFiP3G3Olu9frHUj-53" value="0..n" style="resizable=0;align=left;verticalAlign=top;labelBackgroundColor=#ffffff;fontSize=10;strokeColor=#003366;shadow=1;fillColor=#D4E1F5;fontColor=#003366" parent="_UF3kFiP3G3Olu9frHUj-52" connectable="0" vertex="1">
          <mxGeometry x="-1" relative="1" as="geometry">
            <mxPoint x="-27" y="-30" as="offset" />
          </mxGeometry>
        </mxCell>
        <mxCell id="_UF3kFiP3G3Olu9frHUj-55" value="" style="endArrow=open;endSize=12;startArrow=diamondThin;startSize=14;startFill=0;edgeStyle=orthogonalEdgeStyle;entryX=1;entryY=0.5;entryDx=0;entryDy=0;exitX=0;exitY=0.5;exitDx=0;exitDy=0;" parent="1" source="_UF3kFiP3G3Olu9frHUj-29" target="xvubMpEdOjOFzFZ-NZdf-3" edge="1">
          <mxGeometry x="389.35999999999996" y="350" as="geometry">
            <mxPoint x="-919.0000000000001" y="1171.55" as="sourcePoint" />
            <mxPoint x="-819.0000000000001" y="1171.55" as="targetPoint" />
            <Array as="points">
              <mxPoint x="-929" y="1052" />
              <mxPoint x="-929" y="932" />
            </Array>
          </mxGeometry>
        </mxCell>
        <mxCell id="_UF3kFiP3G3Olu9frHUj-56" value="0..n" style="resizable=0;align=left;verticalAlign=top;labelBackgroundColor=#ffffff;fontSize=10;strokeColor=#003366;shadow=1;fillColor=#D4E1F5;fontColor=#003366" parent="_UF3kFiP3G3Olu9frHUj-55" connectable="0" vertex="1">
          <mxGeometry x="-1" relative="1" as="geometry">
            <mxPoint x="-25" y="-29" as="offset" />
          </mxGeometry>
        </mxCell>
        <mxCell id="_UF3kFiP3G3Olu9frHUj-58" value="" style="sketch=0;pointerEvents=1;shadow=0;dashed=0;html=1;strokeColor=none;labelPosition=center;verticalLabelPosition=bottom;verticalAlign=top;outlineConnect=0;align=center;shape=mxgraph.office.security.key_permissions;fillColor=#2072B8;" parent="1" vertex="1">
          <mxGeometry x="-985.47" y="1202" width="9.43" height="20" as="geometry" />
        </mxCell>
        <mxCell id="_UF3kFiP3G3Olu9frHUj-62" value="" style="endArrow=open;endSize=12;startArrow=diamondThin;startSize=14;startFill=0;edgeStyle=orthogonalEdgeStyle;entryX=1;entryY=0.5;entryDx=0;entryDy=0;exitX=0;exitY=0.5;exitDx=0;exitDy=0;" parent="1" source="xvubMpEdOjOFzFZ-NZdf-8" target="xvubMpEdOjOFzFZ-NZdf-3" edge="1">
          <mxGeometry x="389.35999999999996" y="350" as="geometry">
            <mxPoint x="-748.9100000000001" y="1101.44" as="sourcePoint" />
            <mxPoint x="-648.9100000000001" y="1101.44" as="targetPoint" />
          </mxGeometry>
        </mxCell>
        <mxCell id="_UF3kFiP3G3Olu9frHUj-63" value="0..n" style="resizable=0;align=left;verticalAlign=top;labelBackgroundColor=#ffffff;fontSize=10;strokeColor=#003366;shadow=1;fillColor=#D4E1F5;fontColor=#003366" parent="_UF3kFiP3G3Olu9frHUj-62" connectable="0" vertex="1">
          <mxGeometry x="-1" relative="1" as="geometry">
            <mxPoint x="-22" y="-27" as="offset" />
          </mxGeometry>
        </mxCell>
        <mxCell id="_UF3kFiP3G3Olu9frHUj-64" value="1" style="resizable=0;align=right;verticalAlign=top;labelBackgroundColor=#ffffff;fontSize=10;strokeColor=#003366;shadow=1;fillColor=#D4E1F5;fontColor=#003366" parent="_UF3kFiP3G3Olu9frHUj-62" connectable="0" vertex="1">
          <mxGeometry x="1" relative="1" as="geometry">
            <mxPoint x="13" y="-32" as="offset" />
          </mxGeometry>
        </mxCell>
        <mxCell id="_UF3kFiP3G3Olu9frHUj-65" value="" style="endArrow=open;endSize=12;startArrow=diamondThin;startSize=14;startFill=0;edgeStyle=orthogonalEdgeStyle;entryX=1;entryY=0.5;entryDx=0;entryDy=0;exitX=0;exitY=0.5;exitDx=0;exitDy=0;" parent="1" source="xvubMpEdOjOFzFZ-NZdf-42" target="xvubMpEdOjOFzFZ-NZdf-41" edge="1">
          <mxGeometry x="389.35999999999996" y="350" as="geometry">
            <mxPoint x="-589.0000000000001" y="1091.6399999999999" as="sourcePoint" />
            <mxPoint x="-489.0000000000001" y="1091.6399999999999" as="targetPoint" />
          </mxGeometry>
        </mxCell>
        <mxCell id="_UF3kFiP3G3Olu9frHUj-66" value="0..n" style="resizable=0;align=left;verticalAlign=top;labelBackgroundColor=#ffffff;fontSize=10;strokeColor=#003366;shadow=1;fillColor=#D4E1F5;fontColor=#003366" parent="_UF3kFiP3G3Olu9frHUj-65" connectable="0" vertex="1">
          <mxGeometry x="-1" relative="1" as="geometry">
            <mxPoint x="-22" y="-28" as="offset" />
          </mxGeometry>
        </mxCell>
        <mxCell id="_UF3kFiP3G3Olu9frHUj-67" value="1" style="resizable=0;align=right;verticalAlign=top;labelBackgroundColor=#ffffff;fontSize=10;strokeColor=#003366;shadow=1;fillColor=#D4E1F5;fontColor=#003366" parent="_UF3kFiP3G3Olu9frHUj-65" connectable="0" vertex="1">
          <mxGeometry x="1" relative="1" as="geometry">
            <mxPoint x="14" y="-29" as="offset" />
          </mxGeometry>
        </mxCell>
        <mxCell id="_UF3kFiP3G3Olu9frHUj-68" value="" style="sketch=0;pointerEvents=1;shadow=0;dashed=0;html=1;strokeColor=none;labelPosition=center;verticalLabelPosition=bottom;verticalAlign=top;outlineConnect=0;align=center;shape=mxgraph.office.security.key_permissions;fillColor=#CCCCCC;" parent="1" vertex="1">
          <mxGeometry x="-29.04000000000002" y="952" width="9.43" height="20" as="geometry" />
        </mxCell>
        <mxCell id="HkhJ3mx6TUrJ336WyDT4-1" value="&lt;blockquote style=&quot;margin: 0px 0px 0px 8px; border: none; padding: 0px;&quot;&gt;paymentId: Number&lt;/blockquote&gt;" style="rounded=0;whiteSpace=wrap;html=1;align=left;" parent="1" vertex="1">
          <mxGeometry x="-649" y="1007" width="160" height="30" as="geometry" />
        </mxCell>
        <mxCell id="HkhJ3mx6TUrJ336WyDT4-2" value="&lt;blockquote style=&quot;margin: 0px 0px 0px 8px; border: none; padding: 0px;&quot;&gt;addressId: Number&lt;/blockquote&gt;" style="rounded=0;whiteSpace=wrap;html=1;align=left;" parent="1" vertex="1">
          <mxGeometry x="-649" y="1037" width="160" height="30" as="geometry" />
        </mxCell>
        <mxCell id="HkhJ3mx6TUrJ336WyDT4-3" value="" style="endArrow=open;endSize=12;startArrow=diamondThin;startSize=14;startFill=0;edgeStyle=orthogonalEdgeStyle;entryX=1;entryY=0.5;entryDx=0;entryDy=0;exitX=0;exitY=0.5;exitDx=0;exitDy=0;" parent="1" source="HkhJ3mx6TUrJ336WyDT4-1" target="_UF3kFiP3G3Olu9frHUj-28" edge="1">
          <mxGeometry x="389.35999999999996" y="350" as="geometry">
            <mxPoint x="-619" y="1177" as="sourcePoint" />
            <mxPoint x="-739.96" y="1067" as="targetPoint" />
            <Array as="points" />
          </mxGeometry>
        </mxCell>
        <mxCell id="HkhJ3mx6TUrJ336WyDT4-4" value="0..n" style="resizable=0;align=left;verticalAlign=top;labelBackgroundColor=#ffffff;fontSize=10;strokeColor=#003366;shadow=1;fillColor=#D4E1F5;fontColor=#003366" parent="HkhJ3mx6TUrJ336WyDT4-3" connectable="0" vertex="1">
          <mxGeometry x="-1" relative="1" as="geometry">
            <mxPoint x="-24" y="-30" as="offset" />
          </mxGeometry>
        </mxCell>
        <mxCell id="HkhJ3mx6TUrJ336WyDT4-5" value="1" style="resizable=0;align=right;verticalAlign=top;labelBackgroundColor=#ffffff;fontSize=10;strokeColor=#003366;shadow=1;fillColor=#D4E1F5;fontColor=#003366" parent="HkhJ3mx6TUrJ336WyDT4-3" connectable="0" vertex="1">
          <mxGeometry x="1" relative="1" as="geometry">
            <mxPoint x="11" y="-31" as="offset" />
          </mxGeometry>
        </mxCell>
        <mxCell id="HkhJ3mx6TUrJ336WyDT4-6" value="" style="endArrow=open;endSize=12;startArrow=diamondThin;startSize=14;startFill=0;edgeStyle=orthogonalEdgeStyle;exitX=0;exitY=0.5;exitDx=0;exitDy=0;entryX=1;entryY=0.5;entryDx=0;entryDy=0;" parent="1" source="HkhJ3mx6TUrJ336WyDT4-2" target="_UF3kFiP3G3Olu9frHUj-21" edge="1">
          <mxGeometry x="389.35999999999996" y="350" as="geometry">
            <mxPoint x="-904.44" y="1177" as="sourcePoint" />
            <mxPoint x="-639" y="1217" as="targetPoint" />
            <Array as="points">
              <mxPoint x="-689" y="1052" />
              <mxPoint x="-689" y="1212" />
            </Array>
          </mxGeometry>
        </mxCell>
        <mxCell id="HkhJ3mx6TUrJ336WyDT4-7" value="0..n" style="resizable=0;align=left;verticalAlign=top;labelBackgroundColor=#ffffff;fontSize=10;strokeColor=#003366;shadow=1;fillColor=#D4E1F5;fontColor=#003366" parent="HkhJ3mx6TUrJ336WyDT4-6" connectable="0" vertex="1">
          <mxGeometry x="-1" relative="1" as="geometry">
            <mxPoint x="-23" y="-26" as="offset" />
          </mxGeometry>
        </mxCell>
        <mxCell id="HkhJ3mx6TUrJ336WyDT4-8" value="1" style="resizable=0;align=right;verticalAlign=top;labelBackgroundColor=#ffffff;fontSize=10;strokeColor=#003366;shadow=1;fillColor=#D4E1F5;fontColor=#003366" parent="HkhJ3mx6TUrJ336WyDT4-6" connectable="0" vertex="1">
          <mxGeometry x="1" relative="1" as="geometry">
            <mxPoint x="13" y="-30" as="offset" />
          </mxGeometry>
        </mxCell>
        <mxCell id="HkhJ3mx6TUrJ336WyDT4-9" value="" style="endArrow=open;endSize=12;startArrow=diamondThin;startSize=14;startFill=0;edgeStyle=orthogonalEdgeStyle;entryX=0;entryY=0.5;entryDx=0;entryDy=0;exitX=0;exitY=0.5;exitDx=0;exitDy=0;" parent="1" source="_UF3kFiP3G3Olu9frHUj-38" target="_UF3kFiP3G3Olu9frHUj-41" edge="1">
          <mxGeometry x="389.35999999999996" y="350" as="geometry">
            <mxPoint x="-1099" y="1362" as="sourcePoint" />
            <mxPoint x="-1199" y="922" as="targetPoint" />
            <Array as="points">
              <mxPoint x="-1169" y="1112" />
              <mxPoint x="-1169" y="1212" />
            </Array>
          </mxGeometry>
        </mxCell>
        <mxCell id="HkhJ3mx6TUrJ336WyDT4-10" value="0..n" style="resizable=0;align=left;verticalAlign=top;labelBackgroundColor=#ffffff;fontSize=10;strokeColor=#003366;shadow=1;fillColor=#D4E1F5;fontColor=#003366" parent="HkhJ3mx6TUrJ336WyDT4-9" connectable="0" vertex="1">
          <mxGeometry x="-1" relative="1" as="geometry">
            <mxPoint x="-25" y="-31" as="offset" />
          </mxGeometry>
        </mxCell>
        <mxCell id="HkhJ3mx6TUrJ336WyDT4-11" value="1" style="resizable=0;align=right;verticalAlign=top;labelBackgroundColor=#ffffff;fontSize=10;strokeColor=#003366;shadow=1;fillColor=#D4E1F5;fontColor=#003366" parent="HkhJ3mx6TUrJ336WyDT4-9" connectable="0" vertex="1">
          <mxGeometry x="1" relative="1" as="geometry">
            <mxPoint x="-6" y="-30" as="offset" />
          </mxGeometry>
        </mxCell>
        <mxCell id="HkhJ3mx6TUrJ336WyDT4-12" value="&lt;blockquote style=&quot;margin: 0px 0px 0px 8px; border: none; padding: 0px;&quot;&gt;privilegeBuy: Bool&lt;/blockquote&gt;" style="rounded=0;whiteSpace=wrap;html=1;align=left;" parent="1" vertex="1">
          <mxGeometry x="-1128.47" y="1257" width="160" height="30" as="geometry" />
        </mxCell>
        <mxCell id="HkhJ3mx6TUrJ336WyDT4-13" value="&lt;blockquote style=&quot;margin: 0px 0px 0px 8px; border: none; padding: 0px;&quot;&gt;privilegeAdminPanel: Bool&lt;/blockquote&gt;" style="rounded=0;whiteSpace=wrap;html=1;align=left;" parent="1" vertex="1">
          <mxGeometry x="-1128.47" y="1287" width="160" height="30" as="geometry" />
        </mxCell>
        <mxCell id="HkhJ3mx6TUrJ336WyDT4-14" value="&lt;blockquote style=&quot;margin: 0px 0px 0px 8px; border: none; padding: 0px;&quot;&gt;email: String&lt;/blockquote&gt;" style="rounded=0;whiteSpace=wrap;html=1;align=left;" parent="1" vertex="1">
          <mxGeometry x="-1129.1499999999999" y="1007" width="160" height="30" as="geometry" />
        </mxCell>
        <mxCell id="HkhJ3mx6TUrJ336WyDT4-15" value="1" style="ellipse;whiteSpace=wrap;html=1;aspect=fixed;rotation=0;gradientColor=#223548;strokeColor=none;gradientDirection=east;fillColor=#5b738b;rounded=0;pointerEvents=0;fontFamily=Helvetica;fontSize=16;fontColor=#FFFFFF;spacingTop=4;spacingBottom=4;spacingLeft=4;spacingRight=4;points=[];fontStyle=1" parent="1" vertex="1">
          <mxGeometry x="-994.3500000000001" y="1012" width="20" height="20" as="geometry" />
        </mxCell>
        <mxCell id="HkhJ3mx6TUrJ336WyDT4-16" value="" style="sketch=0;pointerEvents=1;shadow=0;dashed=0;html=1;strokeColor=none;labelPosition=center;verticalLabelPosition=bottom;verticalAlign=top;outlineConnect=0;align=center;shape=mxgraph.office.security.key_permissions;fillColor=#CCCCCC;" parent="1" vertex="1">
          <mxGeometry x="-508.9100000000001" y="1012" width="9.43" height="20" as="geometry" />
        </mxCell>
        <mxCell id="HkhJ3mx6TUrJ336WyDT4-17" value="" style="sketch=0;pointerEvents=1;shadow=0;dashed=0;html=1;strokeColor=none;labelPosition=center;verticalLabelPosition=bottom;verticalAlign=top;outlineConnect=0;align=center;shape=mxgraph.office.security.key_permissions;fillColor=#CCCCCC;" parent="1" vertex="1">
          <mxGeometry x="-508.9100000000001" y="1042" width="9.43" height="20" as="geometry" />
        </mxCell>
        <mxCell id="kvoVpLwNqEyf5DUQliMr-1" value="&lt;blockquote style=&quot;margin: 0px 0px 0px 8px; border: none; padding: 0px;&quot;&gt;offered: bool&lt;/blockquote&gt;" style="rounded=0;whiteSpace=wrap;html=1;align=left;" parent="1" vertex="1">
          <mxGeometry x="-169" y="1187" width="160" height="30" as="geometry" />
        </mxCell>
        <mxCell id="EQeajuEG8KHzwlrw_xps-2" value="&lt;blockquote style=&quot;margin: 0px; border: none; padding: 0px;&quot;&gt;&lt;b&gt;&lt;u&gt;Bands&lt;/u&gt;&lt;/b&gt;&lt;/blockquote&gt;" style="rounded=0;whiteSpace=wrap;html=1;align=center;fillColor=#008a00;strokeColor=default;fontColor=#ffffff;" vertex="1" parent="1">
          <mxGeometry x="-400" y="200" width="160" height="30" as="geometry" />
        </mxCell>
        <mxCell id="EQeajuEG8KHzwlrw_xps-3" value="&lt;blockquote style=&quot;margin: 0px 0px 0px 8px; border: none; padding: 0px;&quot;&gt;&lt;u&gt;id:&amp;nbsp;&lt;/u&gt;&lt;u style=&quot;background-color: initial;&quot;&gt;Number&lt;/u&gt;&lt;/blockquote&gt;" style="rounded=0;whiteSpace=wrap;html=1;align=left;" vertex="1" parent="1">
          <mxGeometry x="-400" y="230" width="160" height="30" as="geometry" />
        </mxCell>
        <mxCell id="EQeajuEG8KHzwlrw_xps-4" value="&lt;blockquote style=&quot;margin: 0px 0px 0px 8px; border: none; padding: 0px;&quot;&gt;name: String&lt;/blockquote&gt;" style="rounded=0;whiteSpace=wrap;html=1;align=left;" vertex="1" parent="1">
          <mxGeometry x="-400" y="260" width="160" height="30" as="geometry" />
        </mxCell>
        <mxCell id="EQeajuEG8KHzwlrw_xps-5" value="" style="sketch=0;pointerEvents=1;shadow=0;dashed=0;html=1;strokeColor=none;labelPosition=center;verticalLabelPosition=bottom;verticalAlign=top;outlineConnect=0;align=center;shape=mxgraph.office.security.key_permissions;fillColor=#2072B8;" vertex="1" parent="1">
          <mxGeometry x="-259.71000000000004" y="235" width="9.43" height="20" as="geometry" />
        </mxCell>
        <mxCell id="EQeajuEG8KHzwlrw_xps-6" value="1" style="ellipse;whiteSpace=wrap;html=1;aspect=fixed;rotation=0;gradientColor=#223548;strokeColor=none;gradientDirection=east;fillColor=#5b738b;rounded=0;pointerEvents=0;fontFamily=Helvetica;fontSize=16;fontColor=#FFFFFF;spacingTop=4;spacingBottom=4;spacingLeft=4;spacingRight=4;points=[];fontStyle=1" vertex="1" parent="1">
          <mxGeometry x="-265" y="265" width="20" height="20" as="geometry" />
        </mxCell>
        <mxCell id="EQeajuEG8KHzwlrw_xps-8" value="&lt;blockquote style=&quot;margin: 0px 0px 0px 8px; border: none; padding: 0px;&quot;&gt;foundingYear: Number&lt;/blockquote&gt;" style="rounded=0;whiteSpace=wrap;html=1;align=left;" vertex="1" parent="1">
          <mxGeometry x="-400" y="290" width="160" height="30" as="geometry" />
        </mxCell>
        <mxCell id="EQeajuEG8KHzwlrw_xps-9" value="&lt;blockquote style=&quot;margin: 0px 0px 0px 8px; border: none; padding: 0px;&quot;&gt;descriptionEn: String&lt;/blockquote&gt;" style="rounded=0;whiteSpace=wrap;html=1;align=left;" vertex="1" parent="1">
          <mxGeometry x="-400" y="320" width="160" height="30" as="geometry" />
        </mxCell>
        <mxCell id="EQeajuEG8KHzwlrw_xps-10" value="&lt;blockquote style=&quot;margin: 0px 0px 0px 8px; border: none; padding: 0px;&quot;&gt;&lt;i&gt;genreId: Number&lt;/i&gt;&lt;/blockquote&gt;" style="rounded=0;whiteSpace=wrap;html=1;align=left;" vertex="1" parent="1">
          <mxGeometry x="-400" y="440" width="160" height="30" as="geometry" />
        </mxCell>
        <mxCell id="EQeajuEG8KHzwlrw_xps-11" value="&lt;blockquote style=&quot;margin: 0px; border: none; padding: 0px;&quot;&gt;&lt;b&gt;&lt;u&gt;Genres&lt;/u&gt;&lt;/b&gt;&lt;/blockquote&gt;" style="rounded=0;whiteSpace=wrap;html=1;align=center;fillColor=#008a00;strokeColor=default;fontColor=#ffffff;" vertex="1" parent="1">
          <mxGeometry x="-160" y="440" width="160" height="30" as="geometry" />
        </mxCell>
        <mxCell id="EQeajuEG8KHzwlrw_xps-12" value="&lt;blockquote style=&quot;margin: 0px 0px 0px 8px; border: none; padding: 0px;&quot;&gt;&lt;u&gt;id:&amp;nbsp;&lt;/u&gt;&lt;u style=&quot;background-color: initial;&quot;&gt;Number&lt;/u&gt;&lt;/blockquote&gt;" style="rounded=0;whiteSpace=wrap;html=1;align=left;" vertex="1" parent="1">
          <mxGeometry x="-160" y="470" width="160" height="30" as="geometry" />
        </mxCell>
        <mxCell id="EQeajuEG8KHzwlrw_xps-13" value="" style="sketch=0;pointerEvents=1;shadow=0;dashed=0;html=1;strokeColor=none;labelPosition=center;verticalLabelPosition=bottom;verticalAlign=top;outlineConnect=0;align=center;shape=mxgraph.office.security.key_permissions;fillColor=#2072B8;" vertex="1" parent="1">
          <mxGeometry x="-20" y="475" width="9.43" height="20" as="geometry" />
        </mxCell>
        <mxCell id="EQeajuEG8KHzwlrw_xps-14" value="&lt;blockquote style=&quot;margin: 0px 0px 0px 8px; border: none; padding: 0px;&quot;&gt;name: String&lt;/blockquote&gt;" style="rounded=0;whiteSpace=wrap;html=1;align=left;" vertex="1" parent="1">
          <mxGeometry x="-160" y="500" width="160" height="30" as="geometry" />
        </mxCell>
        <mxCell id="EQeajuEG8KHzwlrw_xps-15" value="1" style="ellipse;whiteSpace=wrap;html=1;aspect=fixed;rotation=0;gradientColor=#223548;strokeColor=none;gradientDirection=east;fillColor=#5b738b;rounded=0;pointerEvents=0;fontFamily=Helvetica;fontSize=16;fontColor=#FFFFFF;spacingTop=4;spacingBottom=4;spacingLeft=4;spacingRight=4;points=[];fontStyle=1" vertex="1" parent="1">
          <mxGeometry x="-25.279999999999973" y="505" width="20" height="20" as="geometry" />
        </mxCell>
        <mxCell id="EQeajuEG8KHzwlrw_xps-17" value="&lt;blockquote style=&quot;margin: 0px; border: none; padding: 0px;&quot;&gt;&lt;b&gt;&lt;u&gt;Members&lt;/u&gt;&lt;/b&gt;&lt;/blockquote&gt;" style="rounded=0;whiteSpace=wrap;html=1;align=center;fillColor=#008a00;strokeColor=default;fontColor=#ffffff;" vertex="1" parent="1">
          <mxGeometry x="-160" y="240" width="160" height="30" as="geometry" />
        </mxCell>
        <mxCell id="EQeajuEG8KHzwlrw_xps-18" value="&lt;blockquote style=&quot;margin: 0px 0px 0px 8px; border: none; padding: 0px;&quot;&gt;&lt;u&gt;id:&amp;nbsp;&lt;/u&gt;&lt;u style=&quot;background-color: initial;&quot;&gt;Number&lt;/u&gt;&lt;/blockquote&gt;" style="rounded=0;whiteSpace=wrap;html=1;align=left;" vertex="1" parent="1">
          <mxGeometry x="-160" y="270" width="160" height="30" as="geometry" />
        </mxCell>
        <mxCell id="EQeajuEG8KHzwlrw_xps-19" value="" style="sketch=0;pointerEvents=1;shadow=0;dashed=0;html=1;strokeColor=none;labelPosition=center;verticalLabelPosition=bottom;verticalAlign=top;outlineConnect=0;align=center;shape=mxgraph.office.security.key_permissions;fillColor=#2072B8;" vertex="1" parent="1">
          <mxGeometry x="-20" y="275" width="9.43" height="20" as="geometry" />
        </mxCell>
        <mxCell id="EQeajuEG8KHzwlrw_xps-20" value="&lt;blockquote style=&quot;margin: 0px 0px 0px 8px; border: none; padding: 0px;&quot;&gt;name: String&lt;/blockquote&gt;" style="rounded=0;whiteSpace=wrap;html=1;align=left;" vertex="1" parent="1">
          <mxGeometry x="-160" y="300" width="160" height="30" as="geometry" />
        </mxCell>
        <mxCell id="EQeajuEG8KHzwlrw_xps-22" value="&lt;blockquote style=&quot;margin: 0px 0px 0px 8px; border: none; padding: 0px;&quot;&gt;&lt;i&gt;bandId: Number&lt;/i&gt;&lt;/blockquote&gt;" style="rounded=0;whiteSpace=wrap;html=1;align=left;" vertex="1" parent="1">
          <mxGeometry x="-160" y="330" width="160" height="30" as="geometry" />
        </mxCell>
        <mxCell id="EQeajuEG8KHzwlrw_xps-23" value="" style="sketch=0;pointerEvents=1;shadow=0;dashed=0;html=1;strokeColor=none;labelPosition=center;verticalLabelPosition=bottom;verticalAlign=top;outlineConnect=0;align=center;shape=mxgraph.office.security.key_permissions;fillColor=#CCCCCC;" vertex="1" parent="1">
          <mxGeometry x="-20" y="335" width="9.43" height="20" as="geometry" />
        </mxCell>
        <mxCell id="EQeajuEG8KHzwlrw_xps-24" value="" style="sketch=0;pointerEvents=1;shadow=0;dashed=0;html=1;strokeColor=none;labelPosition=center;verticalLabelPosition=bottom;verticalAlign=top;outlineConnect=0;align=center;shape=mxgraph.office.security.key_permissions;fillColor=#CCCCCC;" vertex="1" parent="1">
          <mxGeometry x="-259.72" y="445" width="9.43" height="20" as="geometry" />
        </mxCell>
        <mxCell id="EQeajuEG8KHzwlrw_xps-25" value="" style="endArrow=open;endSize=12;startArrow=diamondThin;startSize=14;startFill=0;edgeStyle=orthogonalEdgeStyle;entryX=0;entryY=0.5;entryDx=0;entryDy=0;exitX=1;exitY=0.5;exitDx=0;exitDy=0;" edge="1" parent="1" source="EQeajuEG8KHzwlrw_xps-10" target="EQeajuEG8KHzwlrw_xps-12">
          <mxGeometry x="389.35999999999996" y="350" as="geometry">
            <mxPoint x="-230.17" y="475" as="sourcePoint" />
            <mxPoint x="-150.17" y="605" as="targetPoint" />
            <Array as="points" />
          </mxGeometry>
        </mxCell>
        <mxCell id="EQeajuEG8KHzwlrw_xps-26" value="0..n" style="resizable=0;align=left;verticalAlign=top;labelBackgroundColor=#ffffff;fontSize=10;strokeColor=#003366;shadow=1;fillColor=#D4E1F5;fontColor=#003366" connectable="0" vertex="1" parent="EQeajuEG8KHzwlrw_xps-25">
          <mxGeometry x="-1" relative="1" as="geometry">
            <mxPoint x="3" y="-28" as="offset" />
          </mxGeometry>
        </mxCell>
        <mxCell id="EQeajuEG8KHzwlrw_xps-27" value="1" style="resizable=0;align=right;verticalAlign=top;labelBackgroundColor=#ffffff;fontSize=10;strokeColor=#003366;shadow=1;fillColor=#D4E1F5;fontColor=#003366" connectable="0" vertex="1" parent="EQeajuEG8KHzwlrw_xps-25">
          <mxGeometry x="1" relative="1" as="geometry">
            <mxPoint x="-4" y="-30" as="offset" />
          </mxGeometry>
        </mxCell>
        <mxCell id="EQeajuEG8KHzwlrw_xps-28" value="" style="endArrow=open;endSize=12;startArrow=diamondThin;startSize=14;startFill=0;edgeStyle=orthogonalEdgeStyle;entryX=1;entryY=0.5;entryDx=0;entryDy=0;exitX=0;exitY=0.5;exitDx=0;exitDy=0;" edge="1" parent="1" source="EQeajuEG8KHzwlrw_xps-22" target="EQeajuEG8KHzwlrw_xps-3">
          <mxGeometry x="389.35999999999996" y="350" as="geometry">
            <mxPoint x="-230.17" y="370" as="sourcePoint" />
            <mxPoint x="-150.17" y="400" as="targetPoint" />
            <Array as="points" />
          </mxGeometry>
        </mxCell>
        <mxCell id="EQeajuEG8KHzwlrw_xps-29" value="0..n" style="resizable=0;align=left;verticalAlign=top;labelBackgroundColor=#ffffff;fontSize=10;strokeColor=#003366;shadow=1;fillColor=#D4E1F5;fontColor=#003366" connectable="0" vertex="1" parent="EQeajuEG8KHzwlrw_xps-28">
          <mxGeometry x="-1" relative="1" as="geometry">
            <mxPoint x="-22" y="-28" as="offset" />
          </mxGeometry>
        </mxCell>
        <mxCell id="EQeajuEG8KHzwlrw_xps-30" value="1" style="resizable=0;align=right;verticalAlign=top;labelBackgroundColor=#ffffff;fontSize=10;strokeColor=#003366;shadow=1;fillColor=#D4E1F5;fontColor=#003366" connectable="0" vertex="1" parent="EQeajuEG8KHzwlrw_xps-28">
          <mxGeometry x="1" relative="1" as="geometry">
            <mxPoint x="13" y="-30" as="offset" />
          </mxGeometry>
        </mxCell>
        <mxCell id="EQeajuEG8KHzwlrw_xps-31" value="&lt;blockquote style=&quot;margin: 0px 0px 0px 8px; border: none; padding: 0px;&quot;&gt;price: Number&lt;/blockquote&gt;" style="rounded=0;whiteSpace=wrap;html=1;align=left;" vertex="1" parent="1">
          <mxGeometry x="-640" y="390" width="160" height="30" as="geometry" />
        </mxCell>
        <mxCell id="EQeajuEG8KHzwlrw_xps-32" value="&lt;blockquote style=&quot;margin: 0px 0px 0px 8px; border: none; padding: 0px;&quot;&gt;inStock: Number&lt;/blockquote&gt;" style="rounded=0;whiteSpace=wrap;html=1;align=left;" vertex="1" parent="1">
          <mxGeometry x="-640" y="420" width="160" height="30" as="geometry" />
        </mxCell>
        <mxCell id="EQeajuEG8KHzwlrw_xps-33" value="&lt;blockquote style=&quot;margin: 0px 0px 0px 8px; border: none; padding: 0px;&quot;&gt;offered: bool&lt;/blockquote&gt;" style="rounded=0;whiteSpace=wrap;html=1;align=left;" vertex="1" parent="1">
          <mxGeometry x="-640" y="450" width="160" height="30" as="geometry" />
        </mxCell>
        <mxCell id="EQeajuEG8KHzwlrw_xps-34" value="&lt;blockquote style=&quot;margin: 0px; border: none; padding: 0px;&quot;&gt;&lt;b&gt;&lt;u&gt;Shows&lt;/u&gt;&lt;/b&gt;&lt;/blockquote&gt;" style="rounded=0;whiteSpace=wrap;html=1;align=center;fillColor=#008a00;strokeColor=default;fontColor=#ffffff;" vertex="1" parent="1">
          <mxGeometry x="-640" y="240" width="160" height="30" as="geometry" />
        </mxCell>
        <mxCell id="EQeajuEG8KHzwlrw_xps-35" value="&lt;blockquote style=&quot;margin: 0px 0px 0px 8px; border: none; padding: 0px;&quot;&gt;&lt;u&gt;id:&amp;nbsp;&lt;/u&gt;&lt;u style=&quot;background-color: initial;&quot;&gt;Number&lt;/u&gt;&lt;/blockquote&gt;" style="rounded=0;whiteSpace=wrap;html=1;align=left;" vertex="1" parent="1">
          <mxGeometry x="-640" y="270" width="160" height="30" as="geometry" />
        </mxCell>
        <mxCell id="EQeajuEG8KHzwlrw_xps-36" value="&lt;blockquote style=&quot;margin: 0px 0px 0px 8px; border: none; padding: 0px;&quot;&gt;name: String&lt;/blockquote&gt;" style="rounded=0;whiteSpace=wrap;html=1;align=left;" vertex="1" parent="1">
          <mxGeometry x="-640" y="300" width="160" height="30" as="geometry" />
        </mxCell>
        <mxCell id="EQeajuEG8KHzwlrw_xps-37" value="" style="sketch=0;pointerEvents=1;shadow=0;dashed=0;html=1;strokeColor=none;labelPosition=center;verticalLabelPosition=bottom;verticalAlign=top;outlineConnect=0;align=center;shape=mxgraph.office.security.key_permissions;fillColor=#2072B8;" vertex="1" parent="1">
          <mxGeometry x="-499.71000000000004" y="275" width="9.43" height="20" as="geometry" />
        </mxCell>
        <mxCell id="EQeajuEG8KHzwlrw_xps-39" value="&lt;blockquote style=&quot;margin: 0px 0px 0px 8px; border: none; padding: 0px;&quot;&gt;date: String&lt;/blockquote&gt;" style="rounded=0;whiteSpace=wrap;html=1;align=left;" vertex="1" parent="1">
          <mxGeometry x="-640" y="360" width="160" height="30" as="geometry" />
        </mxCell>
        <mxCell id="EQeajuEG8KHzwlrw_xps-41" value="&lt;blockquote style=&quot;margin: 0px; border: none; padding: 0px;&quot;&gt;&lt;b&gt;&lt;u&gt;Locations&lt;/u&gt;&lt;/b&gt;&lt;/blockquote&gt;" style="rounded=0;whiteSpace=wrap;html=1;align=center;fillColor=#008a00;strokeColor=default;fontColor=#ffffff;" vertex="1" parent="1">
          <mxGeometry x="-400" y="520" width="160" height="30" as="geometry" />
        </mxCell>
        <mxCell id="EQeajuEG8KHzwlrw_xps-42" value="&lt;blockquote style=&quot;margin: 0px 0px 0px 8px; border: none; padding: 0px;&quot;&gt;&lt;u&gt;id:&amp;nbsp;&lt;/u&gt;&lt;u style=&quot;background-color: initial;&quot;&gt;Number&lt;/u&gt;&lt;/blockquote&gt;" style="rounded=0;whiteSpace=wrap;html=1;align=left;" vertex="1" parent="1">
          <mxGeometry x="-400" y="550" width="160" height="30" as="geometry" />
        </mxCell>
        <mxCell id="EQeajuEG8KHzwlrw_xps-43" value="" style="sketch=0;pointerEvents=1;shadow=0;dashed=0;html=1;strokeColor=none;labelPosition=center;verticalLabelPosition=bottom;verticalAlign=top;outlineConnect=0;align=center;shape=mxgraph.office.security.key_permissions;fillColor=#2072B8;" vertex="1" parent="1">
          <mxGeometry x="-259.72" y="555" width="9.43" height="20" as="geometry" />
        </mxCell>
        <mxCell id="EQeajuEG8KHzwlrw_xps-44" value="&lt;blockquote style=&quot;margin: 0px 0px 0px 8px; border: none; padding: 0px;&quot;&gt;name: String&lt;/blockquote&gt;" style="rounded=0;whiteSpace=wrap;html=1;align=left;" vertex="1" parent="1">
          <mxGeometry x="-400" y="580" width="160" height="30" as="geometry" />
        </mxCell>
        <mxCell id="EQeajuEG8KHzwlrw_xps-47" value="&lt;blockquote style=&quot;margin: 0px 0px 0px 8px; border: none; padding: 0px;&quot;&gt;image: String&lt;/blockquote&gt;" style="rounded=0;whiteSpace=wrap;html=1;align=left;" vertex="1" parent="1">
          <mxGeometry x="-400" y="640" width="160" height="30" as="geometry" />
        </mxCell>
        <mxCell id="EQeajuEG8KHzwlrw_xps-48" value="&lt;blockquote style=&quot;margin: 0px 0px 0px 8px; border: none; padding: 0px;&quot;&gt;address: String&lt;/blockquote&gt;" style="rounded=0;whiteSpace=wrap;html=1;align=left;" vertex="1" parent="1">
          <mxGeometry x="-400" y="610" width="160" height="30" as="geometry" />
        </mxCell>
        <mxCell id="EQeajuEG8KHzwlrw_xps-49" value="&lt;blockquote style=&quot;margin: 0px 0px 0px 8px; border: none; padding: 0px;&quot;&gt;&lt;i&gt;bandId: Number&lt;/i&gt;&lt;/blockquote&gt;" style="rounded=0;whiteSpace=wrap;html=1;align=left;" vertex="1" parent="1">
          <mxGeometry x="-640" y="330" width="160" height="30" as="geometry" />
        </mxCell>
        <mxCell id="EQeajuEG8KHzwlrw_xps-50" value="" style="sketch=0;pointerEvents=1;shadow=0;dashed=0;html=1;strokeColor=none;labelPosition=center;verticalLabelPosition=bottom;verticalAlign=top;outlineConnect=0;align=center;shape=mxgraph.office.security.key_permissions;fillColor=#CCCCCC;" vertex="1" parent="1">
          <mxGeometry x="-499.71000000000004" y="335" width="9.43" height="20" as="geometry" />
        </mxCell>
        <mxCell id="EQeajuEG8KHzwlrw_xps-51" value="" style="endArrow=open;endSize=12;startArrow=diamondThin;startSize=14;startFill=0;edgeStyle=orthogonalEdgeStyle;entryX=0;entryY=0.5;entryDx=0;entryDy=0;exitX=1;exitY=0.5;exitDx=0;exitDy=0;" edge="1" parent="1" source="EQeajuEG8KHzwlrw_xps-49" target="EQeajuEG8KHzwlrw_xps-3">
          <mxGeometry x="389.35999999999996" y="350" as="geometry">
            <mxPoint x="-360" y="520" as="sourcePoint" />
            <mxPoint x="-280" y="520" as="targetPoint" />
            <Array as="points" />
          </mxGeometry>
        </mxCell>
        <mxCell id="EQeajuEG8KHzwlrw_xps-52" value="0..n" style="resizable=0;align=left;verticalAlign=top;labelBackgroundColor=#ffffff;fontSize=10;strokeColor=#003366;shadow=1;fillColor=#D4E1F5;fontColor=#003366" connectable="0" vertex="1" parent="EQeajuEG8KHzwlrw_xps-51">
          <mxGeometry x="-1" relative="1" as="geometry">
            <mxPoint x="3" y="-28" as="offset" />
          </mxGeometry>
        </mxCell>
        <mxCell id="EQeajuEG8KHzwlrw_xps-53" value="1" style="resizable=0;align=right;verticalAlign=top;labelBackgroundColor=#ffffff;fontSize=10;strokeColor=#003366;shadow=1;fillColor=#D4E1F5;fontColor=#003366" connectable="0" vertex="1" parent="EQeajuEG8KHzwlrw_xps-51">
          <mxGeometry x="1" relative="1" as="geometry">
            <mxPoint x="-4" y="-30" as="offset" />
          </mxGeometry>
        </mxCell>
        <mxCell id="EQeajuEG8KHzwlrw_xps-54" value="&lt;blockquote style=&quot;margin: 0px 0px 0px 8px; border: none; padding: 0px;&quot;&gt;&lt;i&gt;locationId: Number&lt;/i&gt;&lt;/blockquote&gt;" style="rounded=0;whiteSpace=wrap;html=1;align=left;" vertex="1" parent="1">
          <mxGeometry x="-640" y="480" width="160" height="30" as="geometry" />
        </mxCell>
        <mxCell id="EQeajuEG8KHzwlrw_xps-55" value="" style="endArrow=open;endSize=12;startArrow=diamondThin;startSize=14;startFill=0;edgeStyle=orthogonalEdgeStyle;entryX=0;entryY=0.5;entryDx=0;entryDy=0;exitX=1;exitY=0.5;exitDx=0;exitDy=0;" edge="1" parent="1" source="EQeajuEG8KHzwlrw_xps-54" target="EQeajuEG8KHzwlrw_xps-42">
          <mxGeometry x="389.35999999999996" y="350" as="geometry">
            <mxPoint x="-470" y="355" as="sourcePoint" />
            <mxPoint x="-390" y="315" as="targetPoint" />
            <Array as="points" />
          </mxGeometry>
        </mxCell>
        <mxCell id="EQeajuEG8KHzwlrw_xps-56" value="0..n" style="resizable=0;align=left;verticalAlign=top;labelBackgroundColor=#ffffff;fontSize=10;strokeColor=#003366;shadow=1;fillColor=#D4E1F5;fontColor=#003366" connectable="0" vertex="1" parent="EQeajuEG8KHzwlrw_xps-55">
          <mxGeometry x="-1" relative="1" as="geometry">
            <mxPoint x="3" y="-28" as="offset" />
          </mxGeometry>
        </mxCell>
        <mxCell id="EQeajuEG8KHzwlrw_xps-57" value="1" style="resizable=0;align=right;verticalAlign=top;labelBackgroundColor=#ffffff;fontSize=10;strokeColor=#003366;shadow=1;fillColor=#D4E1F5;fontColor=#003366" connectable="0" vertex="1" parent="EQeajuEG8KHzwlrw_xps-55">
          <mxGeometry x="1" relative="1" as="geometry">
            <mxPoint x="-4" y="-30" as="offset" />
          </mxGeometry>
        </mxCell>
        <mxCell id="EQeajuEG8KHzwlrw_xps-58" value="" style="sketch=0;pointerEvents=1;shadow=0;dashed=0;html=1;strokeColor=none;labelPosition=center;verticalLabelPosition=bottom;verticalAlign=top;outlineConnect=0;align=center;shape=mxgraph.office.security.key_permissions;fillColor=#CCCCCC;" vertex="1" parent="1">
          <mxGeometry x="-499.71000000000004" y="485" width="9.43" height="20" as="geometry" />
        </mxCell>
        <mxCell id="EQeajuEG8KHzwlrw_xps-59" value="&lt;blockquote style=&quot;margin: 0px 0px 0px 8px; border: none; padding: 0px;&quot;&gt;images: Array&amp;lt;String&amp;gt;&lt;/blockquote&gt;" style="rounded=0;whiteSpace=wrap;html=1;align=left;" vertex="1" parent="1">
          <mxGeometry x="-400" y="380" width="160" height="30" as="geometry" />
        </mxCell>
        <mxCell id="EQeajuEG8KHzwlrw_xps-61" value="&lt;blockquote style=&quot;margin: 0px; border: none; padding: 0px;&quot;&gt;&lt;b&gt;&lt;u&gt;Ratings&lt;/u&gt;&lt;/b&gt;&lt;/blockquote&gt;" style="rounded=0;whiteSpace=wrap;html=1;align=center;fillColor=#008a00;strokeColor=default;fontColor=#ffffff;" vertex="1" parent="1">
          <mxGeometry x="-160" y="40" width="160" height="30" as="geometry" />
        </mxCell>
        <mxCell id="EQeajuEG8KHzwlrw_xps-62" value="&lt;blockquote style=&quot;margin: 0px 0px 0px 8px; border: none; padding: 0px;&quot;&gt;&lt;u&gt;id:&amp;nbsp;&lt;/u&gt;&lt;u style=&quot;background-color: initial;&quot;&gt;Number&lt;/u&gt;&lt;/blockquote&gt;" style="rounded=0;whiteSpace=wrap;html=1;align=left;" vertex="1" parent="1">
          <mxGeometry x="-160" y="70" width="160" height="30" as="geometry" />
        </mxCell>
        <mxCell id="EQeajuEG8KHzwlrw_xps-63" value="" style="sketch=0;pointerEvents=1;shadow=0;dashed=0;html=1;strokeColor=none;labelPosition=center;verticalLabelPosition=bottom;verticalAlign=top;outlineConnect=0;align=center;shape=mxgraph.office.security.key_permissions;fillColor=#2072B8;" vertex="1" parent="1">
          <mxGeometry x="-20" y="75" width="9.43" height="20" as="geometry" />
        </mxCell>
        <mxCell id="EQeajuEG8KHzwlrw_xps-67" value="&lt;blockquote style=&quot;margin: 0px 0px 0px 8px; border: none; padding: 0px;&quot;&gt;rating: Number&lt;/blockquote&gt;" style="rounded=0;whiteSpace=wrap;html=1;align=left;" vertex="1" parent="1">
          <mxGeometry x="-160" y="130" width="160" height="30" as="geometry" />
        </mxCell>
        <mxCell id="EQeajuEG8KHzwlrw_xps-68" value="" style="endArrow=open;endSize=12;startArrow=diamondThin;startSize=14;startFill=0;edgeStyle=orthogonalEdgeStyle;entryX=1;entryY=0.5;entryDx=0;entryDy=0;exitX=0;exitY=0.5;exitDx=0;exitDy=0;" edge="1" parent="1" source="EQeajuEG8KHzwlrw_xps-72" target="EQeajuEG8KHzwlrw_xps-3">
          <mxGeometry x="389.35999999999996" y="350" as="geometry">
            <mxPoint x="-220" y="130" as="sourcePoint" />
            <mxPoint x="-339.48" y="64.49000000000001" as="targetPoint" />
            <Array as="points" />
          </mxGeometry>
        </mxCell>
        <mxCell id="EQeajuEG8KHzwlrw_xps-69" value="0..n" style="resizable=0;align=left;verticalAlign=top;labelBackgroundColor=#ffffff;fontSize=10;strokeColor=#003366;shadow=1;fillColor=#D4E1F5;fontColor=#003366" connectable="0" vertex="1" parent="EQeajuEG8KHzwlrw_xps-68">
          <mxGeometry x="-1" relative="1" as="geometry">
            <mxPoint x="-22" y="-28" as="offset" />
          </mxGeometry>
        </mxCell>
        <mxCell id="EQeajuEG8KHzwlrw_xps-70" value="1" style="resizable=0;align=right;verticalAlign=top;labelBackgroundColor=#ffffff;fontSize=10;strokeColor=#003366;shadow=1;fillColor=#D4E1F5;fontColor=#003366" connectable="0" vertex="1" parent="EQeajuEG8KHzwlrw_xps-68">
          <mxGeometry x="1" relative="1" as="geometry">
            <mxPoint x="13" y="-30" as="offset" />
          </mxGeometry>
        </mxCell>
        <mxCell id="EQeajuEG8KHzwlrw_xps-72" value="&lt;blockquote style=&quot;margin: 0px 0px 0px 8px; border: none; padding: 0px;&quot;&gt;&lt;i&gt;bandId: Number&lt;/i&gt;&lt;/blockquote&gt;" style="rounded=0;whiteSpace=wrap;html=1;align=left;" vertex="1" parent="1">
          <mxGeometry x="-160" y="160" width="160" height="30" as="geometry" />
        </mxCell>
        <mxCell id="EQeajuEG8KHzwlrw_xps-73" value="" style="sketch=0;pointerEvents=1;shadow=0;dashed=0;html=1;strokeColor=none;labelPosition=center;verticalLabelPosition=bottom;verticalAlign=top;outlineConnect=0;align=center;shape=mxgraph.office.security.key_permissions;fillColor=#CCCCCC;" vertex="1" parent="1">
          <mxGeometry x="-20" y="165" width="9.43" height="20" as="geometry" />
        </mxCell>
        <mxCell id="EQeajuEG8KHzwlrw_xps-75" value="&lt;blockquote style=&quot;margin: 0px 0px 0px 8px; border: none; padding: 0px;&quot;&gt;&lt;i&gt;accountId: Number&lt;/i&gt;&lt;/blockquote&gt;" style="rounded=0;whiteSpace=wrap;html=1;align=left;" vertex="1" parent="1">
          <mxGeometry x="-160" y="100" width="160" height="30" as="geometry" />
        </mxCell>
        <mxCell id="EQeajuEG8KHzwlrw_xps-76" value="&lt;blockquote style=&quot;margin: 0px; border: none; padding: 0px;&quot;&gt;&lt;b&gt;&lt;u&gt;Accounts&lt;/u&gt;&lt;/b&gt;&lt;/blockquote&gt;" style="rounded=0;whiteSpace=wrap;html=1;align=center;fillColor=#1ba1e2;strokeColor=default;fontColor=#ffffff;" vertex="1" parent="1">
          <mxGeometry x="-1600.15" y="240" width="160" height="30" as="geometry" />
        </mxCell>
        <mxCell id="EQeajuEG8KHzwlrw_xps-77" value="&lt;blockquote style=&quot;margin: 0px 0px 0px 8px; border: none; padding: 0px;&quot;&gt;&lt;u&gt;id:&amp;nbsp;&lt;/u&gt;&lt;u style=&quot;background-color: initial;&quot;&gt;Number&lt;/u&gt;&lt;/blockquote&gt;" style="rounded=0;whiteSpace=wrap;html=1;align=left;" vertex="1" parent="1">
          <mxGeometry x="-1600.15" y="270" width="160" height="30" as="geometry" />
        </mxCell>
        <mxCell id="EQeajuEG8KHzwlrw_xps-78" value="&lt;blockquote style=&quot;margin: 0px 0px 0px 8px; border: none; padding: 0px;&quot;&gt;username: String&lt;/blockquote&gt;" style="rounded=0;whiteSpace=wrap;html=1;align=left;" vertex="1" parent="1">
          <mxGeometry x="-1600.15" y="300" width="160" height="30" as="geometry" />
        </mxCell>
        <mxCell id="EQeajuEG8KHzwlrw_xps-79" value="&lt;blockquote style=&quot;margin: 0px 0px 0px 8px; border: none; padding: 0px;&quot;&gt;password: String&lt;/blockquote&gt;" style="rounded=0;whiteSpace=wrap;html=1;align=left;" vertex="1" parent="1">
          <mxGeometry x="-1600.15" y="330" width="160" height="30" as="geometry" />
        </mxCell>
        <mxCell id="EQeajuEG8KHzwlrw_xps-80" value="&lt;blockquote style=&quot;margin: 0px; border: none; padding: 0px;&quot;&gt;&lt;b&gt;&lt;u&gt;OrderItems&lt;/u&gt;&lt;/b&gt;&lt;/blockquote&gt;" style="rounded=0;whiteSpace=wrap;html=1;align=center;fillColor=#a20025;strokeColor=default;fontColor=#ffffff;" vertex="1" parent="1">
          <mxGeometry x="-880" y="240" width="160" height="30" as="geometry" />
        </mxCell>
        <mxCell id="EQeajuEG8KHzwlrw_xps-81" value="&lt;blockquote style=&quot;margin: 0px 0px 0px 8px; border: none; padding: 0px;&quot;&gt;&lt;u&gt;id:&amp;nbsp;&lt;/u&gt;&lt;u style=&quot;background-color: initial;&quot;&gt;Number&lt;/u&gt;&lt;/blockquote&gt;" style="rounded=0;whiteSpace=wrap;html=1;align=left;" vertex="1" parent="1">
          <mxGeometry x="-880" y="270" width="160" height="30" as="geometry" />
        </mxCell>
        <mxCell id="EQeajuEG8KHzwlrw_xps-82" value="&lt;blockquote style=&quot;margin: 0px 0px 0px 8px; border: none; padding: 0px;&quot;&gt;&lt;i&gt;accountId: Number&lt;/i&gt;&lt;/blockquote&gt;" style="rounded=0;whiteSpace=wrap;html=1;align=left;" vertex="1" parent="1">
          <mxGeometry x="-1120" y="330" width="160" height="30" as="geometry" />
        </mxCell>
        <mxCell id="EQeajuEG8KHzwlrw_xps-83" value="&lt;blockquote style=&quot;margin: 0px 0px 0px 8px; border: none; padding: 0px;&quot;&gt;&lt;i&gt;showId:&amp;nbsp;&lt;/i&gt;&lt;i style=&quot;background-color: initial;&quot;&gt;Number&lt;/i&gt;&lt;/blockquote&gt;" style="rounded=0;whiteSpace=wrap;html=1;align=left;" vertex="1" parent="1">
          <mxGeometry x="-880" y="330" width="160" height="30" as="geometry" />
        </mxCell>
        <mxCell id="EQeajuEG8KHzwlrw_xps-85" value="&lt;blockquote style=&quot;margin: 0px 0px 0px 8px; border: none; padding: 0px;&quot;&gt;firstName: String&lt;/blockquote&gt;" style="rounded=0;whiteSpace=wrap;html=1;align=left;" vertex="1" parent="1">
          <mxGeometry x="-1600.15" y="390" width="160" height="30" as="geometry" />
        </mxCell>
        <mxCell id="EQeajuEG8KHzwlrw_xps-86" value="&lt;blockquote style=&quot;margin: 0px 0px 0px 8px; border: none; padding: 0px;&quot;&gt;lastName: String&lt;/blockquote&gt;" style="rounded=0;whiteSpace=wrap;html=1;align=left;" vertex="1" parent="1">
          <mxGeometry x="-1600.15" y="420" width="160" height="30" as="geometry" />
        </mxCell>
        <mxCell id="EQeajuEG8KHzwlrw_xps-87" value="&lt;blockquote style=&quot;margin: 0px; border: none; padding: 0px;&quot;&gt;&lt;b&gt;&lt;u&gt;Orders&lt;/u&gt;&lt;/b&gt;&lt;/blockquote&gt;" style="rounded=0;whiteSpace=wrap;html=1;align=center;fillColor=#a20025;strokeColor=default;fontColor=#ffffff;" vertex="1" parent="1">
          <mxGeometry x="-1120" y="270" width="160" height="30" as="geometry" />
        </mxCell>
        <mxCell id="EQeajuEG8KHzwlrw_xps-88" value="&lt;blockquote style=&quot;margin: 0px 0px 0px 8px; border: none; padding: 0px;&quot;&gt;&lt;u&gt;id: Number&lt;/u&gt;&lt;/blockquote&gt;" style="rounded=0;whiteSpace=wrap;html=1;align=left;" vertex="1" parent="1">
          <mxGeometry x="-1120" y="300" width="160" height="30" as="geometry" />
        </mxCell>
        <mxCell id="EQeajuEG8KHzwlrw_xps-89" value="&lt;blockquote style=&quot;margin: 0px 0px 0px 8px; border: none; padding: 0px;&quot;&gt;&lt;i&gt;orderId:&amp;nbsp;&lt;/i&gt;&lt;i style=&quot;background-color: initial;&quot;&gt;Number&lt;/i&gt;&lt;/blockquote&gt;" style="rounded=0;whiteSpace=wrap;html=1;align=left;" vertex="1" parent="1">
          <mxGeometry x="-880" y="300" width="160" height="30" as="geometry" />
        </mxCell>
        <mxCell id="EQeajuEG8KHzwlrw_xps-90" value="&lt;blockquote style=&quot;margin: 0px 0px 0px 8px; border: none; padding: 0px;&quot;&gt;quantity: Number&lt;/blockquote&gt;" style="rounded=0;whiteSpace=wrap;html=1;align=left;" vertex="1" parent="1">
          <mxGeometry x="-880" y="360" width="160" height="30" as="geometry" />
        </mxCell>
        <mxCell id="EQeajuEG8KHzwlrw_xps-91" value="&lt;blockquote style=&quot;margin: 0px 0px 0px 8px; border: none; padding: 0px;&quot;&gt;shippingProgress: Number&lt;/blockquote&gt;" style="rounded=0;whiteSpace=wrap;html=1;align=left;" vertex="1" parent="1">
          <mxGeometry x="-1120" y="390" width="160" height="30" as="geometry" />
        </mxCell>
        <mxCell id="EQeajuEG8KHzwlrw_xps-92" value="" style="sketch=0;pointerEvents=1;shadow=0;dashed=0;html=1;strokeColor=none;labelPosition=center;verticalLabelPosition=bottom;verticalAlign=top;outlineConnect=0;align=center;shape=mxgraph.office.security.key_permissions;fillColor=#2072B8;" vertex="1" parent="1">
          <mxGeometry x="-1460.06" y="275" width="9.43" height="20" as="geometry" />
        </mxCell>
        <mxCell id="EQeajuEG8KHzwlrw_xps-93" value="" style="sketch=0;pointerEvents=1;shadow=0;dashed=0;html=1;strokeColor=none;labelPosition=center;verticalLabelPosition=bottom;verticalAlign=top;outlineConnect=0;align=center;shape=mxgraph.office.security.key_permissions;fillColor=#2072B8;" vertex="1" parent="1">
          <mxGeometry x="-979.9100000000001" y="305" width="9.43" height="20" as="geometry" />
        </mxCell>
        <mxCell id="EQeajuEG8KHzwlrw_xps-94" value="" style="sketch=0;pointerEvents=1;shadow=0;dashed=0;html=1;strokeColor=none;labelPosition=center;verticalLabelPosition=bottom;verticalAlign=top;outlineConnect=0;align=center;shape=mxgraph.office.security.key_permissions;fillColor=#2072B8;" vertex="1" parent="1">
          <mxGeometry x="-739.9099999999999" y="275" width="9.43" height="20" as="geometry" />
        </mxCell>
        <mxCell id="EQeajuEG8KHzwlrw_xps-95" value="1" style="ellipse;whiteSpace=wrap;html=1;aspect=fixed;rotation=0;gradientColor=#223548;strokeColor=none;gradientDirection=east;fillColor=#5b738b;rounded=0;pointerEvents=0;fontFamily=Helvetica;fontSize=16;fontColor=#FFFFFF;spacingTop=4;spacingBottom=4;spacingLeft=4;spacingRight=4;points=[];fontStyle=1" vertex="1" parent="1">
          <mxGeometry x="-1465.3500000000001" y="305" width="20" height="20" as="geometry" />
        </mxCell>
        <mxCell id="EQeajuEG8KHzwlrw_xps-96" value="" style="sketch=0;pointerEvents=1;shadow=0;dashed=0;html=1;strokeColor=none;labelPosition=center;verticalLabelPosition=bottom;verticalAlign=top;outlineConnect=0;align=center;shape=mxgraph.office.security.key_permissions;fillColor=#2072B8;" vertex="1" parent="1">
          <mxGeometry x="-622.31" y="565" width="9.43" height="20" as="geometry" />
        </mxCell>
        <mxCell id="EQeajuEG8KHzwlrw_xps-97" value="Primary Key" style="text;strokeColor=none;align=left;fillColor=none;html=1;verticalAlign=middle;whiteSpace=wrap;rounded=0;" vertex="1" parent="1">
          <mxGeometry x="-602.4000000000001" y="560" width="110" height="30" as="geometry" />
        </mxCell>
        <mxCell id="EQeajuEG8KHzwlrw_xps-98" value="1" style="ellipse;whiteSpace=wrap;html=1;aspect=fixed;rotation=0;gradientColor=#223548;strokeColor=none;gradientDirection=east;fillColor=#5b738b;rounded=0;pointerEvents=0;fontFamily=Helvetica;fontSize=16;fontColor=#FFFFFF;spacingTop=4;spacingBottom=4;spacingLeft=4;spacingRight=4;points=[];fontStyle=1" vertex="1" parent="1">
          <mxGeometry x="-627.5999999999999" y="635" width="20" height="20" as="geometry" />
        </mxCell>
        <mxCell id="EQeajuEG8KHzwlrw_xps-99" value="Unique" style="text;strokeColor=none;align=left;fillColor=none;html=1;verticalAlign=middle;whiteSpace=wrap;rounded=0;" vertex="1" parent="1">
          <mxGeometry x="-602.4000000000001" y="630" width="110" height="30" as="geometry" />
        </mxCell>
        <mxCell id="EQeajuEG8KHzwlrw_xps-100" value="" style="sketch=0;pointerEvents=1;shadow=0;dashed=0;html=1;strokeColor=none;labelPosition=center;verticalLabelPosition=bottom;verticalAlign=top;outlineConnect=0;align=center;shape=mxgraph.office.security.key_permissions;fillColor=#CCCCCC;" vertex="1" parent="1">
          <mxGeometry x="-739.9099999999999" y="305" width="9.43" height="20" as="geometry" />
        </mxCell>
        <mxCell id="EQeajuEG8KHzwlrw_xps-101" value="" style="sketch=0;pointerEvents=1;shadow=0;dashed=0;html=1;strokeColor=none;labelPosition=center;verticalLabelPosition=bottom;verticalAlign=top;outlineConnect=0;align=center;shape=mxgraph.office.security.key_permissions;fillColor=#CCCCCC;" vertex="1" parent="1">
          <mxGeometry x="-739.9099999999999" y="335" width="9.43" height="20" as="geometry" />
        </mxCell>
        <mxCell id="EQeajuEG8KHzwlrw_xps-102" value="" style="sketch=0;pointerEvents=1;shadow=0;dashed=0;html=1;strokeColor=none;labelPosition=center;verticalLabelPosition=bottom;verticalAlign=top;outlineConnect=0;align=center;shape=mxgraph.office.security.key_permissions;fillColor=#CCCCCC;" vertex="1" parent="1">
          <mxGeometry x="-979.9100000000001" y="335" width="9.43" height="20" as="geometry" />
        </mxCell>
        <mxCell id="EQeajuEG8KHzwlrw_xps-103" value="" style="sketch=0;pointerEvents=1;shadow=0;dashed=0;html=1;strokeColor=none;labelPosition=center;verticalLabelPosition=bottom;verticalAlign=top;outlineConnect=0;align=center;shape=mxgraph.office.security.key_permissions;fillColor=#CCCCCC;" vertex="1" parent="1">
          <mxGeometry x="-622.31" y="600" width="9.43" height="20" as="geometry" />
        </mxCell>
        <mxCell id="EQeajuEG8KHzwlrw_xps-104" value="Foreign Key" style="text;strokeColor=none;align=left;fillColor=none;html=1;verticalAlign=middle;whiteSpace=wrap;rounded=0;" vertex="1" parent="1">
          <mxGeometry x="-602.4000000000001" y="595" width="110" height="30" as="geometry" />
        </mxCell>
        <mxCell id="EQeajuEG8KHzwlrw_xps-105" value="&lt;blockquote style=&quot;margin: 0px 0px 0px 8px; border: none; padding: 0px;&quot;&gt;bankName: String&lt;/blockquote&gt;" style="rounded=0;whiteSpace=wrap;html=1;align=left;" vertex="1" parent="1">
          <mxGeometry x="-1360.0000000000002" y="410" width="160" height="30" as="geometry" />
        </mxCell>
        <mxCell id="EQeajuEG8KHzwlrw_xps-106" value="&lt;blockquote style=&quot;margin: 0px 0px 0px 8px; border: none; padding: 0px;&quot;&gt;iban: String&lt;/blockquote&gt;" style="rounded=0;whiteSpace=wrap;html=1;align=left;" vertex="1" parent="1">
          <mxGeometry x="-1360.0000000000002" y="440" width="160" height="30" as="geometry" />
        </mxCell>
        <mxCell id="EQeajuEG8KHzwlrw_xps-107" value="&lt;blockquote style=&quot;margin: 0px 0px 0px 8px; border: none; padding: 0px;&quot;&gt;orderedAt: String&lt;/blockquote&gt;" style="rounded=0;whiteSpace=wrap;html=1;align=left;" vertex="1" parent="1">
          <mxGeometry x="-1120" y="360" width="160" height="30" as="geometry" />
        </mxCell>
        <mxCell id="EQeajuEG8KHzwlrw_xps-108" value="&lt;blockquote style=&quot;margin: 0px; border: none; padding: 0px;&quot;&gt;&lt;b&gt;&lt;u&gt;Addresses&lt;/u&gt;&lt;/b&gt;&lt;/blockquote&gt;" style="rounded=0;whiteSpace=wrap;html=1;align=center;fillColor=#1ba1e2;strokeColor=default;fontColor=#ffffff;" vertex="1" parent="1">
          <mxGeometry x="-1360" y="520" width="160" height="30" as="geometry" />
        </mxCell>
        <mxCell id="EQeajuEG8KHzwlrw_xps-109" value="&lt;blockquote style=&quot;margin: 0px 0px 0px 8px; border: none; padding: 0px;&quot;&gt;street: String&lt;/blockquote&gt;" style="rounded=0;whiteSpace=wrap;html=1;align=left;" vertex="1" parent="1">
          <mxGeometry x="-1360" y="610" width="160" height="30" as="geometry" />
        </mxCell>
        <mxCell id="EQeajuEG8KHzwlrw_xps-110" value="&lt;blockquote style=&quot;margin: 0px 0px 0px 8px; border: none; padding: 0px;&quot;&gt;houseNumber: Number&lt;/blockquote&gt;" style="rounded=0;whiteSpace=wrap;html=1;align=left;" vertex="1" parent="1">
          <mxGeometry x="-1360" y="640" width="160" height="30" as="geometry" />
        </mxCell>
        <mxCell id="EQeajuEG8KHzwlrw_xps-111" value="&lt;blockquote style=&quot;margin: 0px 0px 0px 8px; border: none; padding: 0px;&quot;&gt;postalCode: Number&lt;/blockquote&gt;" style="rounded=0;whiteSpace=wrap;html=1;align=left;" vertex="1" parent="1">
          <mxGeometry x="-1360" y="670" width="160" height="30" as="geometry" />
        </mxCell>
        <mxCell id="EQeajuEG8KHzwlrw_xps-112" value="&lt;blockquote style=&quot;margin: 0px 0px 0px 8px; border: none; padding: 0px;&quot;&gt;city: String&lt;/blockquote&gt;" style="rounded=0;whiteSpace=wrap;html=1;align=left;" vertex="1" parent="1">
          <mxGeometry x="-1360" y="700" width="160" height="30" as="geometry" />
        </mxCell>
        <mxCell id="EQeajuEG8KHzwlrw_xps-113" value="&lt;blockquote style=&quot;margin: 0px 0px 0px 8px; border: none; padding: 0px;&quot;&gt;&lt;u&gt;id:&amp;nbsp;&lt;/u&gt;&lt;u style=&quot;background-color: initial;&quot;&gt;Number&lt;/u&gt;&lt;/blockquote&gt;" style="rounded=0;whiteSpace=wrap;html=1;align=left;" vertex="1" parent="1">
          <mxGeometry x="-1360" y="550" width="160" height="30" as="geometry" />
        </mxCell>
        <mxCell id="EQeajuEG8KHzwlrw_xps-114" value="&lt;blockquote style=&quot;margin: 0px 0px 0px 8px; border: none; padding: 0px;&quot;&gt;&lt;i&gt;accountId: Number&lt;/i&gt;&lt;/blockquote&gt;" style="rounded=0;whiteSpace=wrap;html=1;align=left;" vertex="1" parent="1">
          <mxGeometry x="-1360" y="580" width="160" height="30" as="geometry" />
        </mxCell>
        <mxCell id="EQeajuEG8KHzwlrw_xps-115" value="" style="sketch=0;pointerEvents=1;shadow=0;dashed=0;html=1;strokeColor=none;labelPosition=center;verticalLabelPosition=bottom;verticalAlign=top;outlineConnect=0;align=center;shape=mxgraph.office.security.key_permissions;fillColor=#2072B8;" vertex="1" parent="1">
          <mxGeometry x="-1217" y="554" width="9.43" height="20" as="geometry" />
        </mxCell>
        <mxCell id="EQeajuEG8KHzwlrw_xps-116" value="&lt;blockquote style=&quot;margin: 0px; border: none; padding: 0px;&quot;&gt;&lt;b&gt;&lt;u&gt;Payments&lt;/u&gt;&lt;/b&gt;&lt;/blockquote&gt;" style="rounded=0;whiteSpace=wrap;html=1;align=center;fillColor=#1ba1e2;strokeColor=default;fontColor=#ffffff;" vertex="1" parent="1">
          <mxGeometry x="-1360.0000000000002" y="320" width="160" height="30" as="geometry" />
        </mxCell>
        <mxCell id="EQeajuEG8KHzwlrw_xps-117" value="&lt;blockquote style=&quot;margin: 0px 0px 0px 8px; border: none; padding: 0px;&quot;&gt;&lt;u&gt;id:&amp;nbsp;&lt;/u&gt;&lt;u style=&quot;background-color: initial;&quot;&gt;Number&lt;/u&gt;&lt;/blockquote&gt;" style="rounded=0;whiteSpace=wrap;html=1;align=left;" vertex="1" parent="1">
          <mxGeometry x="-1360.0000000000002" y="350" width="160" height="30" as="geometry" />
        </mxCell>
        <mxCell id="EQeajuEG8KHzwlrw_xps-118" value="&lt;blockquote style=&quot;margin: 0px 0px 0px 8px; border: none; padding: 0px;&quot;&gt;&lt;i&gt;accountId: Number&lt;/i&gt;&lt;/blockquote&gt;" style="rounded=0;whiteSpace=wrap;html=1;align=left;" vertex="1" parent="1">
          <mxGeometry x="-1360.0000000000002" y="380" width="160" height="30" as="geometry" />
        </mxCell>
        <mxCell id="EQeajuEG8KHzwlrw_xps-119" value="" style="sketch=0;pointerEvents=1;shadow=0;dashed=0;html=1;strokeColor=none;labelPosition=center;verticalLabelPosition=bottom;verticalAlign=top;outlineConnect=0;align=center;shape=mxgraph.office.security.key_permissions;fillColor=#2072B8;" vertex="1" parent="1">
          <mxGeometry x="-1217.0000000000002" y="355" width="9.43" height="20" as="geometry" />
        </mxCell>
        <mxCell id="EQeajuEG8KHzwlrw_xps-120" value="" style="sketch=0;pointerEvents=1;shadow=0;dashed=0;html=1;strokeColor=none;labelPosition=center;verticalLabelPosition=bottom;verticalAlign=top;outlineConnect=0;align=center;shape=mxgraph.office.security.key_permissions;fillColor=#CCCCCC;" vertex="1" parent="1">
          <mxGeometry x="-1217" y="585" width="9.43" height="20" as="geometry" />
        </mxCell>
        <mxCell id="EQeajuEG8KHzwlrw_xps-121" value="" style="sketch=0;pointerEvents=1;shadow=0;dashed=0;html=1;strokeColor=none;labelPosition=center;verticalLabelPosition=bottom;verticalAlign=top;outlineConnect=0;align=center;shape=mxgraph.office.security.key_permissions;fillColor=#CCCCCC;" vertex="1" parent="1">
          <mxGeometry x="-1217.0000000000002" y="385" width="9.43" height="20" as="geometry" />
        </mxCell>
        <mxCell id="EQeajuEG8KHzwlrw_xps-122" value="&lt;blockquote style=&quot;margin: 0px 0px 0px 8px; border: none; padding: 0px;&quot;&gt;accountRoleId: Number&lt;/blockquote&gt;" style="rounded=0;whiteSpace=wrap;html=1;align=left;" vertex="1" parent="1">
          <mxGeometry x="-1600.15" y="450" width="160" height="30" as="geometry" />
        </mxCell>
        <mxCell id="EQeajuEG8KHzwlrw_xps-123" value="&lt;blockquote style=&quot;margin: 0px; border: none; padding: 0px;&quot;&gt;&lt;b&gt;&lt;u&gt;AccountRoles&lt;/u&gt;&lt;/b&gt;&lt;/blockquote&gt;" style="rounded=0;whiteSpace=wrap;html=1;align=center;fillColor=#1ba1e2;strokeColor=default;fontColor=#ffffff;" vertex="1" parent="1">
          <mxGeometry x="-1599.47" y="520" width="160" height="30" as="geometry" />
        </mxCell>
        <mxCell id="EQeajuEG8KHzwlrw_xps-124" value="&lt;blockquote style=&quot;margin: 0px 0px 0px 8px; border: none; padding: 0px;&quot;&gt;name: String&lt;/blockquote&gt;" style="rounded=0;whiteSpace=wrap;html=1;align=left;" vertex="1" parent="1">
          <mxGeometry x="-1599.47" y="580" width="160" height="30" as="geometry" />
        </mxCell>
        <mxCell id="EQeajuEG8KHzwlrw_xps-125" value="&lt;blockquote style=&quot;margin: 0px 0px 0px 8px; border: none; padding: 0px;&quot;&gt;&lt;u&gt;id:&amp;nbsp;&lt;/u&gt;&lt;u style=&quot;background-color: initial;&quot;&gt;Number&lt;/u&gt;&lt;/blockquote&gt;" style="rounded=0;whiteSpace=wrap;html=1;align=left;" vertex="1" parent="1">
          <mxGeometry x="-1599.47" y="550" width="160" height="30" as="geometry" />
        </mxCell>
        <mxCell id="EQeajuEG8KHzwlrw_xps-126" value="" style="sketch=0;pointerEvents=1;shadow=0;dashed=0;html=1;strokeColor=none;labelPosition=center;verticalLabelPosition=bottom;verticalAlign=top;outlineConnect=0;align=center;shape=mxgraph.office.security.key_permissions;fillColor=#CCCCCC;" vertex="1" parent="1">
          <mxGeometry x="-1456.47" y="455" width="9.43" height="20" as="geometry" />
        </mxCell>
        <mxCell id="EQeajuEG8KHzwlrw_xps-127" value="&lt;blockquote style=&quot;margin: 0px 0px 0px 8px; border: none; padding: 0px;&quot;&gt;orderPrice: Number&lt;/blockquote&gt;" style="rounded=0;whiteSpace=wrap;html=1;align=left;" vertex="1" parent="1">
          <mxGeometry x="-880" y="390" width="160" height="30" as="geometry" />
        </mxCell>
        <mxCell id="EQeajuEG8KHzwlrw_xps-128" value="" style="endArrow=open;endSize=12;startArrow=diamondThin;startSize=14;startFill=0;edgeStyle=orthogonalEdgeStyle;entryX=1;entryY=0.5;entryDx=0;entryDy=0;exitX=0;exitY=0.5;exitDx=0;exitDy=0;" edge="1" parent="1" source="EQeajuEG8KHzwlrw_xps-114" target="EQeajuEG8KHzwlrw_xps-77">
          <mxGeometry x="389.35999999999996" y="350" as="geometry">
            <mxPoint x="-1640" y="-50" as="sourcePoint" />
            <mxPoint x="-1540" y="-50" as="targetPoint" />
            <Array as="points">
              <mxPoint x="-1400" y="595" />
              <mxPoint x="-1400" y="285" />
            </Array>
          </mxGeometry>
        </mxCell>
        <mxCell id="EQeajuEG8KHzwlrw_xps-129" value="0..n" style="resizable=0;align=left;verticalAlign=top;labelBackgroundColor=#ffffff;fontSize=10;strokeColor=#003366;shadow=1;fillColor=#D4E1F5;fontColor=#003366" connectable="0" vertex="1" parent="EQeajuEG8KHzwlrw_xps-128">
          <mxGeometry x="-1" relative="1" as="geometry">
            <mxPoint x="-27" y="-30" as="offset" />
          </mxGeometry>
        </mxCell>
        <mxCell id="EQeajuEG8KHzwlrw_xps-130" value="" style="endArrow=open;endSize=12;startArrow=diamondThin;startSize=14;startFill=0;edgeStyle=orthogonalEdgeStyle;entryX=1;entryY=0.5;entryDx=0;entryDy=0;exitX=0;exitY=0.5;exitDx=0;exitDy=0;" edge="1" parent="1" source="EQeajuEG8KHzwlrw_xps-118" target="EQeajuEG8KHzwlrw_xps-77">
          <mxGeometry x="389.35999999999996" y="350" as="geometry">
            <mxPoint x="-1700" y="444.54999999999995" as="sourcePoint" />
            <mxPoint x="-1600" y="444.54999999999995" as="targetPoint" />
            <Array as="points">
              <mxPoint x="-1400" y="395" />
              <mxPoint x="-1400" y="285" />
            </Array>
          </mxGeometry>
        </mxCell>
        <mxCell id="EQeajuEG8KHzwlrw_xps-131" value="0..n" style="resizable=0;align=left;verticalAlign=top;labelBackgroundColor=#ffffff;fontSize=10;strokeColor=#003366;shadow=1;fillColor=#D4E1F5;fontColor=#003366" connectable="0" vertex="1" parent="EQeajuEG8KHzwlrw_xps-130">
          <mxGeometry x="-1" relative="1" as="geometry">
            <mxPoint x="-25" y="-29" as="offset" />
          </mxGeometry>
        </mxCell>
        <mxCell id="EQeajuEG8KHzwlrw_xps-132" value="" style="sketch=0;pointerEvents=1;shadow=0;dashed=0;html=1;strokeColor=none;labelPosition=center;verticalLabelPosition=bottom;verticalAlign=top;outlineConnect=0;align=center;shape=mxgraph.office.security.key_permissions;fillColor=#2072B8;" vertex="1" parent="1">
          <mxGeometry x="-1456.47" y="555" width="9.43" height="20" as="geometry" />
        </mxCell>
        <mxCell id="EQeajuEG8KHzwlrw_xps-133" value="" style="endArrow=open;endSize=12;startArrow=diamondThin;startSize=14;startFill=0;edgeStyle=orthogonalEdgeStyle;entryX=1;entryY=0.5;entryDx=0;entryDy=0;exitX=0;exitY=0.5;exitDx=0;exitDy=0;" edge="1" parent="1" source="EQeajuEG8KHzwlrw_xps-82" target="EQeajuEG8KHzwlrw_xps-77">
          <mxGeometry x="389.35999999999996" y="350" as="geometry">
            <mxPoint x="-1529.91" y="374.44000000000005" as="sourcePoint" />
            <mxPoint x="-1429.91" y="374.44000000000005" as="targetPoint" />
            <Array as="points">
              <mxPoint x="-1160" y="345" />
              <mxPoint x="-1160" y="285" />
            </Array>
          </mxGeometry>
        </mxCell>
        <mxCell id="EQeajuEG8KHzwlrw_xps-134" value="0..n" style="resizable=0;align=left;verticalAlign=top;labelBackgroundColor=#ffffff;fontSize=10;strokeColor=#003366;shadow=1;fillColor=#D4E1F5;fontColor=#003366" connectable="0" vertex="1" parent="EQeajuEG8KHzwlrw_xps-133">
          <mxGeometry x="-1" relative="1" as="geometry">
            <mxPoint x="-22" y="-27" as="offset" />
          </mxGeometry>
        </mxCell>
        <mxCell id="EQeajuEG8KHzwlrw_xps-135" value="1" style="resizable=0;align=right;verticalAlign=top;labelBackgroundColor=#ffffff;fontSize=10;strokeColor=#003366;shadow=1;fillColor=#D4E1F5;fontColor=#003366" connectable="0" vertex="1" parent="EQeajuEG8KHzwlrw_xps-133">
          <mxGeometry x="1" relative="1" as="geometry">
            <mxPoint x="14" y="-29" as="offset" />
          </mxGeometry>
        </mxCell>
        <mxCell id="EQeajuEG8KHzwlrw_xps-136" value="" style="endArrow=open;endSize=12;startArrow=diamondThin;startSize=14;startFill=0;edgeStyle=orthogonalEdgeStyle;entryX=1;entryY=0.5;entryDx=0;entryDy=0;exitX=0;exitY=0.5;exitDx=0;exitDy=0;" edge="1" parent="1" source="EQeajuEG8KHzwlrw_xps-89" target="EQeajuEG8KHzwlrw_xps-88">
          <mxGeometry x="389.35999999999996" y="350" as="geometry">
            <mxPoint x="-1370" y="364.6399999999999" as="sourcePoint" />
            <mxPoint x="-1270" y="364.6399999999999" as="targetPoint" />
          </mxGeometry>
        </mxCell>
        <mxCell id="EQeajuEG8KHzwlrw_xps-137" value="0..n" style="resizable=0;align=left;verticalAlign=top;labelBackgroundColor=#ffffff;fontSize=10;strokeColor=#003366;shadow=1;fillColor=#D4E1F5;fontColor=#003366" connectable="0" vertex="1" parent="EQeajuEG8KHzwlrw_xps-136">
          <mxGeometry x="-1" relative="1" as="geometry">
            <mxPoint x="-22" y="-28" as="offset" />
          </mxGeometry>
        </mxCell>
        <mxCell id="EQeajuEG8KHzwlrw_xps-138" value="1" style="resizable=0;align=right;verticalAlign=top;labelBackgroundColor=#ffffff;fontSize=10;strokeColor=#003366;shadow=1;fillColor=#D4E1F5;fontColor=#003366" connectable="0" vertex="1" parent="EQeajuEG8KHzwlrw_xps-136">
          <mxGeometry x="1" relative="1" as="geometry">
            <mxPoint x="14" y="-29" as="offset" />
          </mxGeometry>
        </mxCell>
        <mxCell id="EQeajuEG8KHzwlrw_xps-139" value="&lt;blockquote style=&quot;margin: 0px 0px 0px 8px; border: none; padding: 0px;&quot;&gt;paymentId: Number&lt;/blockquote&gt;" style="rounded=0;whiteSpace=wrap;html=1;align=left;" vertex="1" parent="1">
          <mxGeometry x="-1120" y="420" width="160" height="30" as="geometry" />
        </mxCell>
        <mxCell id="EQeajuEG8KHzwlrw_xps-140" value="&lt;blockquote style=&quot;margin: 0px 0px 0px 8px; border: none; padding: 0px;&quot;&gt;addressId: Number&lt;/blockquote&gt;" style="rounded=0;whiteSpace=wrap;html=1;align=left;" vertex="1" parent="1">
          <mxGeometry x="-1120" y="450" width="160" height="30" as="geometry" />
        </mxCell>
        <mxCell id="EQeajuEG8KHzwlrw_xps-141" value="" style="endArrow=open;endSize=12;startArrow=diamondThin;startSize=14;startFill=0;edgeStyle=orthogonalEdgeStyle;entryX=1;entryY=0.5;entryDx=0;entryDy=0;exitX=0;exitY=0.5;exitDx=0;exitDy=0;" edge="1" parent="1" source="EQeajuEG8KHzwlrw_xps-139" target="EQeajuEG8KHzwlrw_xps-117">
          <mxGeometry x="389.35999999999996" y="350" as="geometry">
            <mxPoint x="-1400" y="450" as="sourcePoint" />
            <mxPoint x="-1520.96" y="340" as="targetPoint" />
            <Array as="points">
              <mxPoint x="-1160" y="435" />
              <mxPoint x="-1160" y="365" />
            </Array>
          </mxGeometry>
        </mxCell>
        <mxCell id="EQeajuEG8KHzwlrw_xps-142" value="0..n" style="resizable=0;align=left;verticalAlign=top;labelBackgroundColor=#ffffff;fontSize=10;strokeColor=#003366;shadow=1;fillColor=#D4E1F5;fontColor=#003366" connectable="0" vertex="1" parent="EQeajuEG8KHzwlrw_xps-141">
          <mxGeometry x="-1" relative="1" as="geometry">
            <mxPoint x="-24" y="-30" as="offset" />
          </mxGeometry>
        </mxCell>
        <mxCell id="EQeajuEG8KHzwlrw_xps-143" value="1" style="resizable=0;align=right;verticalAlign=top;labelBackgroundColor=#ffffff;fontSize=10;strokeColor=#003366;shadow=1;fillColor=#D4E1F5;fontColor=#003366" connectable="0" vertex="1" parent="EQeajuEG8KHzwlrw_xps-141">
          <mxGeometry x="1" relative="1" as="geometry">
            <mxPoint x="11" y="-31" as="offset" />
          </mxGeometry>
        </mxCell>
        <mxCell id="EQeajuEG8KHzwlrw_xps-144" value="" style="endArrow=open;endSize=12;startArrow=diamondThin;startSize=14;startFill=0;edgeStyle=orthogonalEdgeStyle;exitX=0;exitY=0.5;exitDx=0;exitDy=0;entryX=1;entryY=0.5;entryDx=0;entryDy=0;" edge="1" parent="1" source="EQeajuEG8KHzwlrw_xps-140" target="EQeajuEG8KHzwlrw_xps-113">
          <mxGeometry x="389.35999999999996" y="350" as="geometry">
            <mxPoint x="-1685.44" y="450" as="sourcePoint" />
            <mxPoint x="-1420" y="490" as="targetPoint" />
            <Array as="points">
              <mxPoint x="-1160" y="465" />
              <mxPoint x="-1160" y="565" />
            </Array>
          </mxGeometry>
        </mxCell>
        <mxCell id="EQeajuEG8KHzwlrw_xps-145" value="0..n" style="resizable=0;align=left;verticalAlign=top;labelBackgroundColor=#ffffff;fontSize=10;strokeColor=#003366;shadow=1;fillColor=#D4E1F5;fontColor=#003366" connectable="0" vertex="1" parent="EQeajuEG8KHzwlrw_xps-144">
          <mxGeometry x="-1" relative="1" as="geometry">
            <mxPoint x="-23" y="-26" as="offset" />
          </mxGeometry>
        </mxCell>
        <mxCell id="EQeajuEG8KHzwlrw_xps-146" value="1" style="resizable=0;align=right;verticalAlign=top;labelBackgroundColor=#ffffff;fontSize=10;strokeColor=#003366;shadow=1;fillColor=#D4E1F5;fontColor=#003366" connectable="0" vertex="1" parent="EQeajuEG8KHzwlrw_xps-144">
          <mxGeometry x="1" relative="1" as="geometry">
            <mxPoint x="13" y="-30" as="offset" />
          </mxGeometry>
        </mxCell>
        <mxCell id="EQeajuEG8KHzwlrw_xps-147" value="" style="endArrow=open;endSize=12;startArrow=diamondThin;startSize=14;startFill=0;edgeStyle=orthogonalEdgeStyle;entryX=0;entryY=0.5;entryDx=0;entryDy=0;exitX=0;exitY=0.5;exitDx=0;exitDy=0;" edge="1" parent="1" source="EQeajuEG8KHzwlrw_xps-122" target="EQeajuEG8KHzwlrw_xps-125">
          <mxGeometry x="389.35999999999996" y="350" as="geometry">
            <mxPoint x="-1570" y="715" as="sourcePoint" />
            <mxPoint x="-1670" y="275" as="targetPoint" />
            <Array as="points">
              <mxPoint x="-1640" y="465" />
              <mxPoint x="-1640" y="565" />
            </Array>
          </mxGeometry>
        </mxCell>
        <mxCell id="EQeajuEG8KHzwlrw_xps-148" value="0..n" style="resizable=0;align=left;verticalAlign=top;labelBackgroundColor=#ffffff;fontSize=10;strokeColor=#003366;shadow=1;fillColor=#D4E1F5;fontColor=#003366" connectable="0" vertex="1" parent="EQeajuEG8KHzwlrw_xps-147">
          <mxGeometry x="-1" relative="1" as="geometry">
            <mxPoint x="-25" y="-31" as="offset" />
          </mxGeometry>
        </mxCell>
        <mxCell id="EQeajuEG8KHzwlrw_xps-149" value="1" style="resizable=0;align=right;verticalAlign=top;labelBackgroundColor=#ffffff;fontSize=10;strokeColor=#003366;shadow=1;fillColor=#D4E1F5;fontColor=#003366" connectable="0" vertex="1" parent="EQeajuEG8KHzwlrw_xps-147">
          <mxGeometry x="1" relative="1" as="geometry">
            <mxPoint x="-6" y="-30" as="offset" />
          </mxGeometry>
        </mxCell>
        <mxCell id="EQeajuEG8KHzwlrw_xps-150" value="&lt;blockquote style=&quot;margin: 0px 0px 0px 8px; border: none; padding: 0px;&quot;&gt;privilegeBuy: Bool&lt;/blockquote&gt;" style="rounded=0;whiteSpace=wrap;html=1;align=left;" vertex="1" parent="1">
          <mxGeometry x="-1599.47" y="610" width="160" height="30" as="geometry" />
        </mxCell>
        <mxCell id="EQeajuEG8KHzwlrw_xps-151" value="&lt;blockquote style=&quot;margin: 0px 0px 0px 8px; border: none; padding: 0px;&quot;&gt;privilegeAdminPanel: Bool&lt;/blockquote&gt;" style="rounded=0;whiteSpace=wrap;html=1;align=left;" vertex="1" parent="1">
          <mxGeometry x="-1599.47" y="640" width="160" height="30" as="geometry" />
        </mxCell>
        <mxCell id="EQeajuEG8KHzwlrw_xps-152" value="&lt;blockquote style=&quot;margin: 0px 0px 0px 8px; border: none; padding: 0px;&quot;&gt;email: String&lt;/blockquote&gt;" style="rounded=0;whiteSpace=wrap;html=1;align=left;" vertex="1" parent="1">
          <mxGeometry x="-1600.1499999999999" y="360" width="160" height="30" as="geometry" />
        </mxCell>
        <mxCell id="EQeajuEG8KHzwlrw_xps-153" value="1" style="ellipse;whiteSpace=wrap;html=1;aspect=fixed;rotation=0;gradientColor=#223548;strokeColor=none;gradientDirection=east;fillColor=#5b738b;rounded=0;pointerEvents=0;fontFamily=Helvetica;fontSize=16;fontColor=#FFFFFF;spacingTop=4;spacingBottom=4;spacingLeft=4;spacingRight=4;points=[];fontStyle=1" vertex="1" parent="1">
          <mxGeometry x="-1465.3500000000001" y="365" width="20" height="20" as="geometry" />
        </mxCell>
        <mxCell id="EQeajuEG8KHzwlrw_xps-154" value="" style="sketch=0;pointerEvents=1;shadow=0;dashed=0;html=1;strokeColor=none;labelPosition=center;verticalLabelPosition=bottom;verticalAlign=top;outlineConnect=0;align=center;shape=mxgraph.office.security.key_permissions;fillColor=#CCCCCC;" vertex="1" parent="1">
          <mxGeometry x="-979.9100000000001" y="425" width="9.43" height="20" as="geometry" />
        </mxCell>
        <mxCell id="EQeajuEG8KHzwlrw_xps-155" value="" style="sketch=0;pointerEvents=1;shadow=0;dashed=0;html=1;strokeColor=none;labelPosition=center;verticalLabelPosition=bottom;verticalAlign=top;outlineConnect=0;align=center;shape=mxgraph.office.security.key_permissions;fillColor=#CCCCCC;" vertex="1" parent="1">
          <mxGeometry x="-979.9100000000001" y="455" width="9.43" height="20" as="geometry" />
        </mxCell>
        <mxCell id="EQeajuEG8KHzwlrw_xps-156" value="&lt;blockquote style=&quot;margin: 0px 0px 0px 8px; border: none; padding: 0px;&quot;&gt;logo: String&lt;/blockquote&gt;" style="rounded=0;whiteSpace=wrap;html=1;align=left;" vertex="1" parent="1">
          <mxGeometry x="-400" y="410" width="160" height="30" as="geometry" />
        </mxCell>
        <mxCell id="EQeajuEG8KHzwlrw_xps-157" value="" style="endArrow=open;endSize=12;startArrow=diamondThin;startSize=14;startFill=0;edgeStyle=orthogonalEdgeStyle;entryX=0;entryY=0.5;entryDx=0;entryDy=0;exitX=1;exitY=0.5;exitDx=0;exitDy=0;" edge="1" parent="1" source="EQeajuEG8KHzwlrw_xps-83" target="EQeajuEG8KHzwlrw_xps-35">
          <mxGeometry x="389.35999999999996" y="350" as="geometry">
            <mxPoint x="-770" y="570" as="sourcePoint" />
            <mxPoint x="-690" y="470" as="targetPoint" />
            <Array as="points" />
          </mxGeometry>
        </mxCell>
        <mxCell id="EQeajuEG8KHzwlrw_xps-158" value="0..n" style="resizable=0;align=left;verticalAlign=top;labelBackgroundColor=#ffffff;fontSize=10;strokeColor=#003366;shadow=1;fillColor=#D4E1F5;fontColor=#003366" connectable="0" vertex="1" parent="EQeajuEG8KHzwlrw_xps-157">
          <mxGeometry x="-1" relative="1" as="geometry">
            <mxPoint x="3" y="-28" as="offset" />
          </mxGeometry>
        </mxCell>
        <mxCell id="EQeajuEG8KHzwlrw_xps-159" value="1" style="resizable=0;align=right;verticalAlign=top;labelBackgroundColor=#ffffff;fontSize=10;strokeColor=#003366;shadow=1;fillColor=#D4E1F5;fontColor=#003366" connectable="0" vertex="1" parent="EQeajuEG8KHzwlrw_xps-157">
          <mxGeometry x="1" relative="1" as="geometry">
            <mxPoint x="-4" y="-30" as="offset" />
          </mxGeometry>
        </mxCell>
        <mxCell id="EQeajuEG8KHzwlrw_xps-160" value="&lt;blockquote style=&quot;margin: 0px 0px 0px 8px; border: none; padding: 0px;&quot;&gt;image: String&lt;/blockquote&gt;" style="rounded=0;whiteSpace=wrap;html=1;align=left;" vertex="1" parent="1">
          <mxGeometry x="-160" y="360" width="160" height="30" as="geometry" />
        </mxCell>
        <mxCell id="EQeajuEG8KHzwlrw_xps-162" value="" style="sketch=0;pointerEvents=1;shadow=0;dashed=0;html=1;strokeColor=none;labelPosition=center;verticalLabelPosition=bottom;verticalAlign=top;outlineConnect=0;align=center;shape=mxgraph.office.security.key_permissions;fillColor=#CCCCCC;" vertex="1" parent="1">
          <mxGeometry x="-20" y="105" width="9.43" height="20" as="geometry" />
        </mxCell>
        <mxCell id="EQeajuEG8KHzwlrw_xps-163" value="" style="endArrow=open;endSize=12;startArrow=diamondThin;startSize=14;startFill=0;edgeStyle=orthogonalEdgeStyle;entryX=1;entryY=0.5;entryDx=0;entryDy=0;exitX=0;exitY=0.5;exitDx=0;exitDy=0;" edge="1" parent="1" source="EQeajuEG8KHzwlrw_xps-75" target="EQeajuEG8KHzwlrw_xps-77">
          <mxGeometry x="389.35999999999996" y="350" as="geometry">
            <mxPoint x="-830" y="114.71000000000001" as="sourcePoint" />
            <mxPoint x="-910" y="114.71000000000001" as="targetPoint" />
            <Array as="points">
              <mxPoint x="-1290" y="115" />
              <mxPoint x="-1290" y="285" />
            </Array>
          </mxGeometry>
        </mxCell>
        <mxCell id="EQeajuEG8KHzwlrw_xps-164" value="0..n" style="resizable=0;align=left;verticalAlign=top;labelBackgroundColor=#ffffff;fontSize=10;strokeColor=#003366;shadow=1;fillColor=#D4E1F5;fontColor=#003366" connectable="0" vertex="1" parent="EQeajuEG8KHzwlrw_xps-163">
          <mxGeometry x="-1" relative="1" as="geometry">
            <mxPoint x="-22" y="-28" as="offset" />
          </mxGeometry>
        </mxCell>
        <mxCell id="EQeajuEG8KHzwlrw_xps-165" value="1" style="resizable=0;align=right;verticalAlign=top;labelBackgroundColor=#ffffff;fontSize=10;strokeColor=#003366;shadow=1;fillColor=#D4E1F5;fontColor=#003366" connectable="0" vertex="1" parent="EQeajuEG8KHzwlrw_xps-163">
          <mxGeometry x="1" relative="1" as="geometry">
            <mxPoint x="14" y="-29" as="offset" />
          </mxGeometry>
        </mxCell>
        <mxCell id="EQeajuEG8KHzwlrw_xps-166" value="&lt;blockquote style=&quot;margin: 0px 0px 0px 8px; border: none; padding: 0px;&quot;&gt;descriptionDe: String&lt;/blockquote&gt;" style="rounded=0;whiteSpace=wrap;html=1;align=left;" vertex="1" parent="1">
          <mxGeometry x="-400" y="350" width="160" height="30" as="geometry" />
        </mxCell>
      </root>
    </mxGraphModel>
  </diagram>
</mxfile>
